<?xml version="1.0" encoding="utf-8"?>
<!-- Generator: Adobe Illustrator 22.1.0, SVG Export Plug-In . SVG Version: 6.00 Build 0)  -->
<svg version="1.1" id="Layer_1" xmlns="http://www.w3.org/2000/svg" xmlns:xlink="http://www.w3.org/1999/xlink" x="0px" y="0px"
	 viewBox="0 0 100 100" style="enable-background:new 0 0 100 100;" xml:space="preserve">
<style type="text/css">
	.st0{fill:#FFFFFF;}
	.st1{fill:none;}
	.st2{font-family:'ArialRoundedMTBold';}
	.st3{font-size:22.41px;}
</style>
<circle class="st0" cx="50" cy="32.9" r="20.6"/>
<g>
	<path class="st1" d="M23.4,86.9c-0.1-0.9-0.1-1.8-0.1-2.7c0-15.4,12.4-27.8,27.8-27.8s27.8,12.4,27.8,27.8c0,0.9,0,1.8-0.1,2.7h9.3
		V51.1h-81v35.8H23.4z"/>
	<path class="st0" d="M51.1,56.4c-15.4,0-27.8,12.4-27.8,27.8c0,0.9,0,1.8,0.1,2.7h55.4c0.1-0.9,0.1-1.8,0.1-2.7
		C78.9,68.9,66.4,56.4,51.1,56.4z"/>
</g>
<text transform="matrix(0.9842 0.1772 -0.1772 0.9842 70.5596 22.6683)" class="st0 st2 st3">?</text>
</svg>
