<?xml version="1.0" encoding="utf-8"?>
<!-- Generator: Adobe Illustrator 23.0.4, SVG Export Plug-In . SVG Version: 6.00 Build 0)  -->
<svg version="1.1" id="icon" xmlns="http://www.w3.org/2000/svg" xmlns:xlink="http://www.w3.org/1999/xlink" x="0px" y="0px"
	 viewBox="0 0 100 100" style="enable-background:new 0 0 100 100;" xml:space="preserve">
<style type="text/css">
	.st0{fill:none;stroke:#525DAA;stroke-width:12;stroke-miterlimit:10;}
	.st1{fill:#525DAA;}
</style>
<g>
	<path id="border" class="st0" d="M80.91,92.16H19.03c-5.52,0-10-4.48-10-10V17.84c0-5.52,4.48-10,10-10h61.88c5.52,0,10,4.48,10,10
		v64.32C90.91,87.68,86.43,92.16,80.91,92.16z"/>
	<g id="cross">
		<path class="st1" d="M73.65,30.62L73.65,30.62c0,3.35-2.72,6.07-6.07,6.07H32.39c-3.35,0-6.07-2.72-6.07-6.07v0
			c0-3.35,2.72-6.07,6.07-6.07h35.19C70.93,24.55,73.65,27.27,73.65,30.62z"/>
	</g>
	<g id="cross_1_">
		<path class="st1" d="M73.62,50L73.62,50c0,3.35-2.72,6.07-6.07,6.07H32.36c-3.35,0-6.07-2.72-6.07-6.07v0
			c0-3.35,2.72-6.07,6.07-6.07h35.19C70.9,43.93,73.62,46.65,73.62,50z"/>
	</g>
	<g id="cross_2_">
		<path class="st1" d="M73.62,69.38L73.62,69.38c0,3.35-2.72,6.07-6.07,6.07H32.36c-3.35,0-6.07-2.72-6.07-6.07v0
			c0-3.35,2.72-6.07,6.07-6.07h35.19C70.9,63.3,73.62,66.02,73.62,69.38z"/>
	</g>
</g>
</svg>
