<?xml version="1.0" encoding="utf-8"?>
<!-- Generator: Adobe Illustrator 22.1.0, SVG Export Plug-In . SVG Version: 6.00 Build 0)  -->
<svg version="1.1" id="Layer_1" xmlns="http://www.w3.org/2000/svg" xmlns:xlink="http://www.w3.org/1999/xlink" x="0px" y="0px"
	 viewBox="0 0 400 300" style="enable-background:new 0 0 400 300;" xml:space="preserve">
<style type="text/css">
	.st0{clip-path:url(#SVGID_2_);fill:#F0EFEE;}
	.st1{fill:#D8D9D9;}
	.st2{clip-path:url(#SVGID_4_);fill:#D8D9D9;}
	.st3{clip-path:url(#SVGID_4_);fill:#00B2A7;}
	.st4{fill:#00A990;}
	.st5{fill:#00AD98;}
	.st6{fill:#008572;}
	.st7{fill:#008D7B;}
	.st8{fill:#D4D6D5;}
	.st9{fill:#BFC1C1;}
	.st10{fill:#009780;}
	.st11{fill:#007665;}
	.st12{fill:#00B2A7;}
	.st13{fill:#BBE3E3;}
	.st14{fill:#AEDEDC;}
	.st15{fill:#82CFCE;}
	.st16{fill:#5AC5C3;}
	.st17{fill:#00AFA1;}
	.st18{fill:#92C2BE;}
	.st19{fill:#00AA93;}
	.st20{fill:#F69DA3;}
	.st21{fill:#F48A8F;}
	.st22{fill:#0B2B34;}
	.st23{fill:#25434C;}
	.st24{fill:#99D1CB;}
	.st25{fill:#1A373F;}
	.st26{fill:#345863;}
	.st27{fill:#93C5C1;}
	.st28{fill:#00222B;}
	.st29{fill:#F18E8C;}
	.st30{fill:#E77C7B;}
	.st31{fill:#284A53;}
	.st32{fill:#A4DAD5;}
	.st33{fill:#2F535E;}
	.st34{fill:#25464E;}
	.st35{fill:#00B1A3;}
</style>
<g>
	<g>
		<defs>
			<rect id="SVGID_1_" x="0" y="10.3" width="400" height="279.4"/>
		</defs>
		<clipPath id="SVGID_2_">
			<use xlink:href="#SVGID_1_"  style="overflow:visible;"/>
		</clipPath>
		<path class="st0" d="M58.6,92.6c-78.1,45.1-78.1,118.2,0,163.3c78.1,45.1,204.7,45.1,282.8,0c78.1-45.1,78.1-118.2,0-163.3
			C263.3,47.5,136.7,47.5,58.6,92.6"/>
	</g>
	<polyline class="st1" points="372.7,132.8 132.4,271.6 20.4,207 260.8,68.2 372.7,132.8 	"/>
	<path class="st1" d="M340.6,177.8c-6.4,3.7-6.4,9.7,0,13.4c6.4,3.7,16.7,3.7,23.1,0c6.4-3.7,6.4-9.7,0-13.4
		C357.3,174.1,346.9,174.1,340.6,177.8"/>
	<g>
		<defs>
			<rect id="SVGID_3_" x="0" y="10.3" width="400" height="279.4"/>
		</defs>
		<clipPath id="SVGID_4_">
			<use xlink:href="#SVGID_3_"  style="overflow:visible;"/>
		</clipPath>
		<path class="st2" d="M82.3,82.8c-14.9,8.6-14.9,22.6,0,31.2c14.9,8.6,39.1,8.6,54,0c14.9-8.6,14.9-22.6,0-31.2
			C121.4,74.2,97.2,74.2,82.3,82.8"/>
		<path class="st3" d="M62.1,49c-5.2,26.1,11.7,51.4,37.7,56.7c26.1,5.2,51.4-11.7,56.7-37.7c5.2-26.1-11.7-51.4-37.7-56.7
			C92.7,6,67.3,22.9,62.1,49"/>
	</g>
	<path class="st4" d="M109.3,106.6L109.3,106.6L109.3,106.6L109.3,106.6 M109.3,106.6c22.4,0,42.4-15.7,47.1-38.4
		C151.8,90.9,131.7,106.6,109.3,106.6 M99.8,105.7C99.8,105.7,99.8,105.7,99.8,105.7C99.8,105.7,99.8,105.7,99.8,105.7 M99.7,105.7
		C99.7,105.7,99.7,105.7,99.7,105.7C99.7,105.7,99.7,105.7,99.7,105.7 M99.7,105.7C99.7,105.6,99.6,105.6,99.7,105.7
		C99.7,105.6,99.7,105.6,99.7,105.7 M99.6,105.6C99.6,105.6,99.6,105.6,99.6,105.6C99.6,105.6,99.6,105.6,99.6,105.6 M99.6,105.6
		C99.5,105.6,99.5,105.6,99.6,105.6C99.5,105.6,99.5,105.6,99.6,105.6 M99.5,105.6C99.5,105.6,99.5,105.6,99.5,105.6
		C99.5,105.6,99.5,105.6,99.5,105.6 M99.4,105.6C99.4,105.6,99.4,105.6,99.4,105.6C99.4,105.6,99.4,105.6,99.4,105.6 M99.4,105.6
		C99.4,105.6,99.3,105.6,99.4,105.6C99.3,105.6,99.4,105.6,99.4,105.6 M99.3,105.6C99.3,105.6,99.3,105.6,99.3,105.6
		C99.3,105.6,99.3,105.6,99.3,105.6 M99.3,105.6C99.2,105.6,99.2,105.6,99.3,105.6C99.2,105.6,99.2,105.6,99.3,105.6 M99.2,105.5
		C99.2,105.5,99.2,105.5,99.2,105.5C99.2,105.5,99.2,105.5,99.2,105.5 M99.1,105.5C99.1,105.5,99.1,105.5,99.1,105.5
		C99.1,105.5,99.1,105.5,99.1,105.5 M99.1,105.5c0,0-0.1,0-0.1,0C99,105.5,99,105.5,99.1,105.5 M98.9,105.5
		C98.9,105.5,98.9,105.5,98.9,105.5C98.9,105.5,98.9,105.5,98.9,105.5 M98.9,105.5c0,0-0.1,0-0.1,0
		C98.8,105.5,98.8,105.5,98.9,105.5 M98.8,105.5c-20.6-4.6-35.2-21.8-37.4-41.8c1.7,11.7,20.3,25.7,42.2,25.7c5.8,0,11.9-1,18-3.3
		c0.5-0.2,1-0.4,1.6-0.6c-0.9,0-1.7,0-2.6,0c-5.4,0-10.9-0.6-16.3-1.7c-12.4-2.5-24.3-7.7-32.7-15.1c-5.5-4.8-8.9-10-10.1-15.3
		c0.1-1,0.2-1.9,0.4-2.9c0.5,5.9,4,12,10.3,17.5C84,78.5,103,84.6,120.5,84.6c1.6,0,3.2-0.1,4.8-0.2c11.7-5.3,18.8-12.3,22.8-20.1
		c-2.2,1.3-4.7,2.5-7.5,3.4c-5.6,1.9-11.8,2.8-18.3,2.8c-5,0-10.2-0.5-15.2-1.5C95.6,66.7,84.5,61.9,76.7,55
		c-6.9-6-10.3-12.8-9.9-19.2c0.4-0.7,0.7-1.3,1.1-1.9c-1.3,6.8,2,14.1,9.3,20.6c11,9.7,28.8,15.4,45.1,15.4c6.4,0,12.6-0.9,18.1-2.7
		c3.3-1.1,6.1-2.5,8.5-4.1c2.7-5.8,3.8-12,3.9-17.9c-2.6,3.6-7,6.5-12.7,8.4c-5,1.7-10.6,2.5-16.4,2.5c-4.5,0-9.1-0.5-13.6-1.4
		c-5-1-10-2.6-14.5-4.6c-0.7,0.3-1.3,0.6-2,0.9c-2.5,1.1-5,2.2-7.7,2.6c-0.6,0.1-1.2,0.1-1.8,0.1c-2.1,0-4.3-0.6-5.9-1.9
		c-3.4-2.8-3.8-7.9-2.9-12.2c0.3-1.7,0.8-3.3,1.4-4.9c-1.7-2.9-2.6-5.9-2.6-8.8c0.3-0.3,0.6-0.6,0.9-0.9c-0.2,2.9,0.6,5.8,2.1,8.7
		c2-4.8,5.2-8.9,9.1-12c-0.5-1.6-0.7-3.3-0.6-4.9c0.3-0.2,0.6-0.4,0.9-0.5c-0.2,1.6-0.1,3.2,0.4,4.9c4.6-3.5,10.2-5.7,16-6.4
		c0.6-1.8,2.2-3.3,4.6-4.2c0.6,0,1.2,0,1.8,0c0.4,0,0.8,0,1.3,0c-0.7,0.1-1.4,0.3-2.1,0.5c-2.3,0.8-4,2.1-4.7,3.6
		c1.1-0.1,2.1-0.2,3.2-0.2c4.9,0,9.9,1.1,14.6,3.4c2.9,1.4,5.7,3.6,7.3,6.2c1-0.8,1.7-1.8,1.9-3c0.4-2-0.6-4.2-2.8-6.2
		c-0.7-0.6-1.4-1.1-2.2-1.6c1,0.4,2,0.8,3,1.2c2.3,2.1,3.3,4.5,2.9,6.8c-0.3,1.4-1.1,2.6-2.3,3.5c0.6,1.3,1,2.8,0.8,4.3
		c-0.2,2.7-1.9,5.1-4,6.8c-2.1,1.7-4.6,2.8-7.1,3.9c-0.2,0.1-0.3,0.1-0.5,0.2c1.7,0.2,3.3,0.2,5,0.2c4.4,0,8.6-0.6,12.3-1.9
		c6.1-2.1,10-5.6,11.1-10c0.2,0.3,0.4,0.6,0.6,0.8c-1.4,4.4-5.4,7.9-11.5,9.9c-3.8,1.3-8.1,1.9-12.5,1.9c-2.1,0-4.3-0.1-6.5-0.4
		c-6.8,3-13.5,6-20.3,9c8.3,3.6,17.9,5.6,27.1,5.6c5.7,0,11.3-0.8,16.2-2.4c6.1-2.1,10.5-5.2,13-9.2c0-2.3-0.2-4.5-0.5-6.7l0,0
		c0.7,1.3,1.3,2.7,1.8,4.1c0.1,0.4,0.3,0.7,0.4,1.1c0,0,0,0,0,0c2.8,7.8,3.7,16.4,2.2,25.1c0.5-2.9,0.8-5.8,0.8-8.6
		c0-22.5-15.8-42.6-38.7-47.2c-3.2-0.6-6.4-1-9.5-1c-22.5,0-42.6,15.8-47.2,38.7c-0.6,3.2-1,6.4-1,9.5
		C61.1,80.6,76.5,100.5,98.8,105.5 M61.2,60.9c0,0.2,0,0.4,0,0.6C61.2,61.3,61.2,61.1,61.2,60.9 M66.1,37.2
		c-0.1,0.1-0.1,0.3-0.2,0.4C65.9,37.5,66,37.4,66.1,37.2 M150.6,33.8c0,0,0.1,0.1,0.1,0.1C150.7,33.9,150.7,33.9,150.6,33.8
		c-0.1-0.1-0.2-0.3-0.3-0.4C150.5,33.5,150.6,33.7,150.6,33.8 M149.4,31.8c0.1,0.1,0.1,0.2,0.2,0.3C149.5,32,149.4,31.9,149.4,31.8
		c0-0.1-0.1-0.1-0.1-0.2C149.3,31.7,149.3,31.7,149.4,31.8 M81,19.5c-0.1,0.1-0.3,0.2-0.4,0.3C80.7,19.7,80.9,19.6,81,19.5
		 M82.4,18.6L82.4,18.6L82.4,18.6c0,0,0.1-0.1,0.1-0.1c0.1-0.1,0.2-0.1,0.3-0.2c-0.1,0.1-0.2,0.1-0.3,0.2
		C82.4,18.5,82.4,18.5,82.4,18.6 M156.5,68.1C156.5,68.1,156.5,68.1,156.5,68.1C156.5,68.1,156.5,68.1,156.5,68.1 M156.5,68
		C156.5,67.9,156.5,67.9,156.5,68C156.5,67.9,156.5,67.9,156.5,68 M156.5,67.9C156.5,67.9,156.5,67.8,156.5,67.9
		C156.5,67.8,156.5,67.9,156.5,67.9 M156.5,67.8C156.5,67.8,156.5,67.8,156.5,67.8C156.5,67.8,156.5,67.8,156.5,67.8 M156.5,67.7
		C156.5,67.7,156.5,67.7,156.5,67.7C156.5,67.7,156.5,67.7,156.5,67.7 M156.5,67.7C156.6,67.7,156.6,67.7,156.5,67.7
		C156.6,67.7,156.6,67.7,156.5,67.7 M156.6,67.6C156.6,67.6,156.6,67.6,156.6,67.6C156.6,67.6,156.6,67.6,156.6,67.6 M156.6,67.5
		C156.6,67.5,156.6,67.5,156.6,67.5C156.6,67.5,156.6,67.5,156.6,67.5 M156.6,67.5C156.6,67.5,156.6,67.5,156.6,67.5
		C156.6,67.5,156.6,67.5,156.6,67.5 M156.6,67.4C156.6,67.4,156.6,67.4,156.6,67.4C156.6,67.4,156.6,67.4,156.6,67.4 M156.6,67.4
		C156.6,67.3,156.6,67.3,156.6,67.4C156.6,67.3,156.6,67.3,156.6,67.4 M156.6,67.3C156.6,67.3,156.6,67.3,156.6,67.3
		C156.6,67.3,156.6,67.3,156.6,67.3 M156.6,67.2C156.6,67.2,156.6,67.2,156.6,67.2C156.6,67.2,156.6,67.2,156.6,67.2 M156.6,67.2
		C156.6,67.2,156.7,67.1,156.6,67.2C156.7,67.1,156.6,67.2,156.6,67.2 M156.7,67.1C156.7,67.1,156.7,67.1,156.7,67.1
		C156.7,67.1,156.7,67.1,156.7,67.1"/>
	<path class="st5" d="M84,53.6c0.6,0,1.2,0,1.8-0.1c2.7-0.4,5.2-1.5,7.7-2.6c0.7-0.3,1.3-0.6,2-0.9c-4.8-2.1-9.2-4.8-12.8-8
		c-2.7-2.4-4.8-4.9-6.3-7.4c-0.6,1.6-1,3.2-1.4,4.9c-0.8,4.3-0.5,9.5,2.9,12.2C79.8,53,81.9,53.6,84,53.6 M96.6,49.5
		c6.8-3,13.5-6,20.3-9c-1.3-0.2-2.6-0.4-3.9-0.6c-7.9-1.6-15.5-4.9-20.8-9.6c-3.1-2.8-5.2-5.7-6.2-8.7c-3.9,3.1-7.1,7.2-9.1,12
		c1.4,2.7,3.6,5.3,6.4,7.8C87.1,44.6,91.6,47.3,96.6,49.5 M118.4,39.9c0.2-0.1,0.3-0.1,0.5-0.2c2.5-1.1,5-2.2,7.1-3.9
		c2.1-1.7,3.8-4.1,4-6.8c0.1-1.5-0.2-3-0.8-4.3c-0.9,0.7-2,1.3-3.2,1.7c-1.8,0.6-3.8,0.9-5.8,0.9c-1.6,0-3.2-0.2-4.8-0.5
		c-3.7-0.7-7.2-2.3-9.7-4.5c-2.5-2.2-3.6-4.6-3.1-7c0-0.2,0.1-0.5,0.2-0.7c-5.8,0.7-11.4,2.9-16,6.4c0.9,2.9,2.9,5.9,6,8.6
		C99.1,35.3,108.8,38.9,118.4,39.9 M120.1,26.4c2,0,3.9-0.3,5.6-0.8c1.3-0.4,2.3-1,3.1-1.6c-1.6-2.7-4.4-4.8-7.3-6.2
		c-4.7-2.3-9.7-3.4-14.6-3.4c-1.1,0-2.2,0.1-3.2,0.2c-0.1,0.3-0.3,0.6-0.3,1c-0.4,2,0.6,4.2,2.8,6.2
		C109.6,24.6,115.1,26.4,120.1,26.4"/>
	<path class="st6" d="M129.2,24.7c1.2-1,2-2.2,2.3-3.5c0.5-2.2-0.6-4.6-2.9-6.8c-1-0.4-2-0.8-3-1.2c0.8,0.5,1.6,1,2.2,1.6
		c2.2,2,3.2,4.2,2.8,6.2c-0.2,1.1-0.9,2.1-1.9,3C128.9,24.2,129.1,24.4,129.2,24.7 M102.7,14.6c0.3,0,0.6-0.1,0.9-0.1
		c0.7-1.6,2.3-2.8,4.7-3.6c0.7-0.2,1.4-0.4,2.1-0.5c-0.4,0-0.8,0-1.3,0c-0.6,0-1.2,0-1.8,0C105,11.3,103.3,12.8,102.7,14.6"/>
	<path class="st7" d="M120.1,27.2c2.1,0,4-0.3,5.8-0.9c1.3-0.4,2.4-1,3.2-1.7c-0.1-0.3-0.3-0.5-0.4-0.8c-0.8,0.7-1.9,1.2-3.1,1.6
		c-1.7,0.6-3.6,0.8-5.6,0.8c-5,0-10.5-1.8-13.9-4.8c-2.2-2-3.2-4.2-2.8-6.2c0.1-0.3,0.2-0.7,0.3-1c-0.3,0-0.6,0.1-0.9,0.1
		c-0.1,0.2-0.1,0.5-0.2,0.7c-0.5,2.3,0.6,4.8,3.1,7c2.5,2.2,6,3.7,9.7,4.5C116.9,27.1,118.5,27.2,120.1,27.2"/>
	<path class="st6" d="M65.9,37.6c0.1-0.1,0.1-0.3,0.2-0.4C66,37.4,65.9,37.5,65.9,37.6"/>
	<path class="st6" d="M120.5,85.5c0.9,0,1.7,0,2.6,0c0.8-0.3,1.5-0.6,2.2-0.9c-1.6,0.1-3.2,0.2-4.8,0.2c-17.5,0-36.5-6.1-48.4-16.5
		c-6.3-5.5-9.8-11.6-10.3-17.5c-0.2,1-0.3,1.9-0.4,2.9c1.2,5.2,4.7,10.4,10.1,15.3c8.4,7.4,20.2,12.6,32.7,15.1
		C109.6,84.9,115.1,85.5,120.5,85.5"/>
	<path class="st6" d="M61.2,61.5c0-0.2,0-0.4,0-0.6C61.2,61.1,61.2,61.3,61.2,61.5"/>
	<path class="st6" d="M80.6,19.8c0.1-0.1,0.3-0.2,0.4-0.3C80.9,19.6,80.7,19.7,80.6,19.8"/>
	<path class="st6" d="M123.7,55.9c5.8,0,11.4-0.8,16.4-2.5c5.7-1.9,10.1-4.8,12.7-8.4c0-0.5,0-1,0-1.5c-2.4,3.9-6.9,7.1-13,9.2
		c-4.9,1.7-10.4,2.4-16.2,2.4c-9.1,0-18.7-2-27.1-5.6c-0.3,0.2-0.7,0.3-1,0.5c4.5,2,9.5,3.6,14.5,4.6
		C114.6,55.5,119.2,55.9,123.7,55.9 M154.5,42C154.5,42,154.5,42,154.5,42c-0.1-0.4-0.3-0.7-0.4-1.1C154.2,41.3,154.4,41.6,154.5,42
		 M76.5,34.6c0.1-0.3,0.3-0.7,0.4-1c-1.6-2.9-2.3-5.8-2.1-8.7c-0.3,0.3-0.6,0.6-0.9,0.9C74,28.7,74.8,31.7,76.5,34.6"/>
	<path class="st7" d="M95.6,50c0.3-0.2,0.7-0.3,1-0.5c-5-2.2-9.5-4.9-13.2-8.2c-2.8-2.5-5-5.1-6.4-7.8c-0.1,0.3-0.3,0.7-0.4,1
		c1.5,2.5,3.6,5,6.3,7.4C86.4,45.1,90.8,47.8,95.6,50"/>
	<path class="st6" d="M122.4,70.6c6.5,0,12.8-0.9,18.3-2.8c2.8-0.9,5.3-2.1,7.5-3.4c0.3-0.5,0.5-1,0.7-1.5c-2.4,1.6-5.2,3-8.5,4.1
		c-5.5,1.8-11.7,2.7-18.1,2.7c-16.3,0-34-5.7-45.1-15.4c-7.4-6.5-10.7-13.8-9.3-20.6c-0.4,0.6-0.7,1.3-1.1,1.9
		c-0.4,6.5,3,13.2,9.9,19.2c7.8,6.9,18.9,11.7,30.4,14.1C112.2,70.1,117.4,70.6,122.4,70.6"/>
	<path class="st6" d="M82.4,18.6c0,0,0.1-0.1,0.1-0.1C82.4,18.5,82.4,18.5,82.4,18.6 M82.5,18.5c0.1-0.1,0.2-0.1,0.3-0.2
		C82.7,18.4,82.6,18.4,82.5,18.5"/>
	<path class="st6" d="M123.4,40.9c4.4,0,8.7-0.6,12.5-1.9c6.1-2.1,10.1-5.6,11.5-9.9c-0.2-0.3-0.4-0.6-0.6-0.8
		c-1.1,4.4-5,7.9-11.1,10c-3.7,1.3-7.9,1.9-12.3,1.9c-1.6,0-3.3-0.1-5-0.2c-0.5,0.2-1,0.4-1.5,0.7C119.1,40.8,121.3,40.9,123.4,40.9
		 M86,21.6c0.2-0.2,0.5-0.4,0.7-0.6c-0.5-1.6-0.6-3.3-0.4-4.9c-0.3,0.2-0.6,0.3-0.9,0.5C85.3,18.3,85.5,19.9,86,21.6"/>
	<path class="st7" d="M116.9,40.5c0.5-0.2,1-0.4,1.5-0.7c-9.6-1-19.3-4.6-25.7-10.2c-3.1-2.7-5.2-5.7-6-8.6
		c-0.2,0.2-0.5,0.4-0.7,0.6c1,3,3.1,6,6.2,8.7c5.3,4.7,12.9,8,20.8,9.6C114.3,40.1,115.6,40.4,116.9,40.5"/>
	<path class="st6" d="M150.7,34c0,0-0.1-0.1-0.1-0.1C150.7,33.9,150.7,33.9,150.7,34 M150.6,33.8c-0.1-0.1-0.2-0.3-0.3-0.4
		C150.5,33.5,150.6,33.7,150.6,33.8"/>
	<path class="st6" d="M149.6,32.1c-0.1-0.1-0.1-0.2-0.2-0.3C149.4,31.9,149.5,32,149.6,32.1 M149.4,31.8c0-0.1-0.1-0.1-0.1-0.2
		C149.3,31.7,149.3,31.7,149.4,31.8"/>
	<path class="st8" d="M156.4,68.2C156.5,68.2,156.5,68.1,156.4,68.2C156.5,68.1,156.5,68.2,156.4,68.2 M156.5,68.1c0,0,0-0.1,0-0.1
		l0,0l0,0C156.5,68,156.5,68,156.5,68.1 M156.5,67.9C156.5,67.9,156.5,67.9,156.5,67.9C156.5,67.9,156.5,67.9,156.5,67.9
		 M156.5,67.8C156.5,67.8,156.5,67.8,156.5,67.8C156.5,67.8,156.5,67.8,156.5,67.8 M156.5,67.8C156.5,67.8,156.5,67.8,156.5,67.8
		C156.5,67.8,156.5,67.8,156.5,67.8 M156.5,67.7C156.5,67.7,156.5,67.7,156.5,67.7C156.5,67.7,156.5,67.7,156.5,67.7 M156.6,67.6
		C156.6,67.6,156.6,67.6,156.6,67.6C156.6,67.6,156.6,67.6,156.6,67.6 M156.6,67.6C156.6,67.6,156.6,67.6,156.6,67.6
		C156.6,67.6,156.6,67.6,156.6,67.6 M156.6,67.5C156.6,67.5,156.6,67.5,156.6,67.5C156.6,67.5,156.6,67.5,156.6,67.5 M156.6,67.4
		C156.6,67.4,156.6,67.4,156.6,67.4C156.6,67.4,156.6,67.4,156.6,67.4 M156.6,67.4C156.6,67.4,156.6,67.4,156.6,67.4
		C156.6,67.4,156.6,67.4,156.6,67.4 M156.6,67.3C156.6,67.3,156.6,67.3,156.6,67.3C156.6,67.3,156.6,67.3,156.6,67.3 M156.6,67.3
		C156.6,67.2,156.6,67.2,156.6,67.3C156.6,67.2,156.6,67.2,156.6,67.3 M156.6,67.2C156.6,67.2,156.6,67.2,156.6,67.2
		C156.6,67.2,156.6,67.2,156.6,67.2 M156.7,67.1C156.7,67.1,156.7,67.1,156.7,67.1C156.7,67.1,156.7,67.1,156.7,67.1 M156.7,67.1
		C156.7,67.1,156.7,67,156.7,67.1C156.7,67,156.7,67.1,156.7,67.1"/>
	<path class="st9" d="M109.3,106.6C109.3,106.6,109.3,106.6,109.3,106.6C109.3,106.6,109.3,106.6,109.3,106.6L109.3,106.6
		 M109.3,106.6c-3.1,0-6.3-0.3-9.5-1l0,0l0,0C103,106.3,106.2,106.6,109.3,106.6 M99.8,105.7C99.8,105.7,99.8,105.7,99.8,105.7
		C99.8,105.7,99.8,105.7,99.8,105.7 M99.7,105.7C99.7,105.7,99.7,105.7,99.7,105.7C99.7,105.7,99.7,105.7,99.7,105.7 M99.6,105.6
		C99.6,105.6,99.6,105.6,99.6,105.6C99.6,105.6,99.6,105.6,99.6,105.6 M99.6,105.6C99.6,105.6,99.6,105.6,99.6,105.6
		C99.6,105.6,99.6,105.6,99.6,105.6 M99.5,105.6L99.5,105.6L99.5,105.6 M99.4,105.6C99.4,105.6,99.4,105.6,99.4,105.6
		C99.4,105.6,99.4,105.6,99.4,105.6 M99.4,105.6C99.4,105.6,99.4,105.6,99.4,105.6C99.4,105.6,99.4,105.6,99.4,105.6 M99.3,105.6
		L99.3,105.6L99.3,105.6 M99.3,105.6C99.3,105.6,99.3,105.6,99.3,105.6C99.3,105.6,99.3,105.6,99.3,105.6 M99.2,105.5
		C99.2,105.5,99.2,105.5,99.2,105.5L99.2,105.5 M99.1,105.5C99.1,105.5,99.1,105.5,99.1,105.5L99.1,105.5 M99.1,105.5
		C99.1,105.5,99.1,105.5,99.1,105.5C99.1,105.5,99.1,105.5,99.1,105.5 M99,105.5C99,105.5,99,105.5,99,105.5
		C99,105.5,99,105.5,99,105.5 M98.9,105.5C98.9,105.5,98.9,105.5,98.9,105.5L98.9,105.5 M98.8,105.5
		C98.8,105.5,98.8,105.5,98.8,105.5L98.8,105.5"/>
	<path class="st10" d="M109.3,106.6C109.3,106.6,109.3,106.6,109.3,106.6c22.4,0,42.4-15.7,47.1-38.4c0,0,0,0,0-0.1c0,0,0,0,0-0.1
		c0,0,0-0.1,0-0.1l0,0c0,0,0,0,0-0.1c0,0,0,0,0,0c0,0,0,0,0-0.1c0,0,0,0,0,0c0,0,0,0,0,0c0,0,0,0,0,0c0,0,0,0,0,0c0,0,0,0,0,0
		c0,0,0,0,0,0c0,0,0,0,0,0c0,0,0,0,0,0c0,0,0,0,0,0c0,0,0,0,0,0c0,0,0,0,0,0c0,0,0,0,0,0c0,0,0,0,0,0c0,0,0,0,0,0c0,0,0,0,0,0
		c0,0,0,0,0,0c0,0,0,0,0,0c0,0,0,0,0,0c0,0,0,0,0,0c0,0,0,0,0,0c0,0,0,0,0,0c0,0,0,0,0,0c0,0,0,0,0,0c0,0,0,0,0-0.1c0,0,0,0,0,0
		c1.6-8.7,0.7-17.3-2.2-25.1c-0.5,1.1-1,2.1-1.7,3c-0.1,5.9-1.2,12.1-3.9,17.9c4.4-3,7.2-6.8,8.1-11.2c0.1,0.7,0.2,1.5,0.3,2.2l0,0
		c-1.4,4.1-4.5,7.7-9.1,10.5c-4,7.7-11.1,14.8-22.8,20.1c5.1-0.3,10.1-1.3,14.6-2.8c7.9-2.7,13.5-6.9,16.2-12.2
		c-0.2,0.9-0.5,1.9-0.7,2.8c-3.1,4.3-8.3,7.8-15.2,10.1c-5.2,1.8-11,2.7-17,2.9c-0.5,0.2-1,0.4-1.6,0.6c-6,2.3-12.1,3.3-18,3.3
		c-21.9,0-40.5-14.1-42.2-25.7c2.2,20,16.8,37.2,37.4,41.8c0,0,0,0,0,0c0,0,0.1,0,0.1,0c0,0,0,0,0,0c0,0,0,0,0.1,0c0,0,0,0,0,0
		c0,0,0.1,0,0.1,0c0,0,0,0,0,0c0,0,0,0,0.1,0c0,0,0,0,0,0c0,0,0,0,0.1,0c0,0,0,0,0,0c0,0,0,0,0.1,0c0,0,0,0,0,0c0,0,0,0,0.1,0v0
		c0,0,0,0,0.1,0c0,0,0,0,0,0c0,0,0,0,0.1,0c0,0,0,0,0,0c0,0,0,0,0.1,0l0,0c0,0,0,0,0.1,0c0,0,0,0,0,0c0,0,0,0,0.1,0c0,0,0,0,0,0
		c0,0,0,0,0.1,0c0,0,0,0,0,0c0,0,0,0,0.1,0c0,0,0,0,0,0c0,0,0,0,0.1,0l0,0C103,106.3,106.2,106.6,109.3,106.6L109.3,106.6
		 M145.6,90.1c-0.9,1-1.8,2-2.8,2.9c-2.1,1.2-4.5,2.3-7.2,3.2c-5.7,1.9-12,2.8-18.7,2.8c-5.1,0-10.4-0.5-15.5-1.6
		c-11.8-2.4-23.1-7.3-31.1-14.3c-2.1-1.9-3.9-3.8-5.4-5.7c-0.5-1.2-1-2.5-1.4-3.7c1.6,3,4.1,6,7.3,8.9c11.3,9.9,29.4,15.7,46,15.7
		c6.5,0,12.8-0.9,18.4-2.8C139.4,94.1,142.9,92.3,145.6,90.1 M152.4,79.9L152.4,79.9L152.4,79.9c0.1-0.2,0.2-0.4,0.3-0.6
		c0,0,0-0.1,0-0.1c0,0,0,0.1,0,0.1C152.6,79.6,152.5,79.8,152.4,79.9 M153.4,77.8L153.4,77.8l-0.1,0.2L153.4,77.8 M157.4,56.2
		C157.4,56.2,157.4,56.2,157.4,56.2C157.4,56.2,157.4,56.2,157.4,56.2c0-0.3,0-0.6-0.1-0.9C157.4,55.6,157.4,55.9,157.4,56.2
		 M152.8,43.5c0.5-0.9,1-1.8,1.3-2.7c0,0,0,0.1,0,0.1c-0.5-1.4-1.2-2.8-1.8-4.1l0,0C152.5,39,152.7,41.2,152.8,43.5"/>
	<polyline class="st11" points="153.3,78 153.4,77.8 153.4,77.8 153.3,78 	"/>
	<path class="st11" d="M152.4,79.9c0.1-0.2,0.2-0.4,0.3-0.6C152.6,79.6,152.5,79.8,152.4,79.9 M152.7,79.4
		C152.7,79.3,152.7,79.3,152.7,79.4C152.7,79.3,152.7,79.3,152.7,79.4"/>
	<path class="st11" d="M117,99.1c6.6,0,13-0.9,18.7-2.8c2.7-0.9,5-2,7.2-3.2c1-0.9,1.9-1.9,2.8-2.9c-2.7,2.2-6.1,4-10.2,5.3
		c-5.6,1.9-11.9,2.8-18.4,2.8c-16.6,0-34.7-5.8-46-15.7c-3.2-2.8-5.7-5.8-7.3-8.9c0.4,1.3,0.9,2.5,1.4,3.7c1.5,2,3.3,3.9,5.4,5.7
		c8,7,19.2,12,31.1,14.3C106.6,98.5,111.9,99.1,117,99.1"/>
	<path class="st11" d="M123.1,85.4c6-0.2,11.8-1.2,17-2.9c6.9-2.3,12.1-5.8,15.2-10.1c0.3-0.9,0.5-1.9,0.7-2.8
		c-2.7,5.3-8.3,9.5-16.2,12.2c-4.5,1.5-9.4,2.4-14.6,2.8C124.6,84.8,123.9,85.1,123.1,85.4"/>
	<path class="st11" d="M152.8,45c0.7-1,1.3-2,1.7-3c-0.1-0.4-0.3-0.7-0.4-1.1c0,0,0-0.1,0-0.1c-0.3,0.9-0.8,1.8-1.3,2.7
		C152.8,44,152.8,44.5,152.8,45"/>
	<path class="st11" d="M148.2,64.4c4.5-2.8,7.6-6.4,9.1-10.5l0,0c-0.1-0.7-0.2-1.5-0.3-2.2c-0.9,4.4-3.7,8.2-8.1,11.2
		C148.7,63.4,148.4,63.9,148.2,64.4"/>
	<path class="st11" d="M157.4,56.2C157.4,56.2,157.4,56.2,157.4,56.2C157.4,56.2,157.4,56.2,157.4,56.2 M157.4,56.2
		c0-0.3,0-0.6-0.1-0.9C157.4,55.6,157.4,55.9,157.4,56.2"/>
	<polyline class="st12" points="372.7,126.8 132.4,265.6 20.4,200.9 260.8,62.2 372.7,126.8 	"/>
	<path class="st13" d="M132.4,265.6L341.1,145c-0.1-0.5-0.1-1.1-0.1-1.7c0,0,0,0,0,0c0-1.6,1.1-4,3.2-5.3c0.4-0.3,0.9-0.5,1.4-0.7
		c0-0.2-0.1-0.3-0.1-0.5l0-1.5c0-0.2,0-0.3,0-0.5c0-0.1,0-0.3,0-0.4l0-1c0,0,0,0,0,0c0-1.6,1.7-2.9,4.1-3.4l0-0.3l0,0c0,0,0,0,0,0
		c0,0,0,0,0,0c0-0.7,1-1.3,2.2-1.3c0,0,0,0,0,0c1.2,0,2.2,0.6,2.2,1.3c0,0,0,0,0,0c0,0,0,0,0,0l0,0.3c2.4,0.5,4.1,1.8,4.1,3.4
		c0,0,0,0,0,0c0,0,0,0,0,0l0,0.9c0,0,0,0,0,0c0,0.1,0,0.3,0,0.4c0,0.1,0,0.1,0,0.2c0,0.1,0,0.1,0,0.2l14.5-8.4L260.8,62.2
		l-29.3,16.9c-0.8,8-2,17.5-3.1,25.8l-1,7.6c0,0,6.5-3.1,17.1-11.4c6.5-5,10.6-7.8,16.5-8.1c-2.7-6.8-4.6-14-5.8-21.2
		c1.1-0.4,2.1-0.5,3.2-0.5c5.4,0,10.7,4.3,16.1,6.4c3,1.2,6.1,1.6,9.1,1.6c2,0,4-0.2,6-0.5L311,91.1c-0.9,3.1-2.3,6.2-3.3,9.3
		c-1.5,4.8-1.6,10.7,2.1,14c2.1,1.9,5.1,2.5,7.9,3.1c3.9,0.8,7.9,1.6,11.8,2.3c3.4,0.7,7.2,1.7,8.5,4.9c1.6,3.9-1.8,8-5.4,10.2
		c-6.7,4.1-14.6,5.4-21.9,8.1c-17.2,6.3-30.7,19.8-46.7,28.7c-11.1,6.1-23.4,10-36.1,11.3c-13.1,1.3-26.4-0.1-39.3,2.4
		c-10.1,2-20.4,4.7-30.4,7.7c-5.3,1.6-10.6,3.7-15.3,6.6c-2.4,1.5-4.6,3.2-6.6,5.2c-1.9,1.9-3.2,4.4-4.9,6.6c-2.6,3.4-5.5,5.3-9.5,6
		c-2.5,0.5-5.3,0.4-7.6,1.7c-1.2,0.7-3.2,2.5-4.2,3.4c-4.6,4-9,5.7-15.1,5.9c-0.1,0-0.2,0-0.3,0c-5.4,0-17.3-3.5-17.4-10.3
		c0,0,0,0,0-0.1c-0.5-0.5-0.8-1-1.1-1.6c-0.3-0.6-0.4-1.1-0.4-1.6c0-3,5.1-4.1,7.8-5.2c11-4.3,19.9-11.7,27.7-20
		c6.2-8.5,33-44.8,37.7-49.9c1.6-1.8,5.7-6.5,11.2-7.7c6.8-1.5,15.7-2.3,24.4-2.8c-0.3-6.3,0.8-13.7,1.8-18.5
		c0.6-3.1,1.1-5.2,1.1-5.2c-0.1,1,0.5,1.9,2.2,2.7c0.4-2,0.9-4.1,1.4-6.1L20.4,200.9L132.4,265.6"/>
	<path class="st14" d="M94.8,228.6c0.1,0,0.2,0,0.3,0c6.1-0.1,10.5-1.9,15.1-5.9c1-0.9,3-2.7,4.2-3.4c2.3-1.2,5.1-1.2,7.6-1.7
		c4-0.8,6.9-2.7,9.5-6c1.7-2.1,3-4.6,4.9-6.6c2-2,4.2-3.7,6.6-5.2c4.7-3,10-5,15.3-6.6c9.9-3,20.2-5.8,30.4-7.7
		c12.9-2.5,26.2-1.1,39.3-2.4c12.6-1.3,25-5.1,36.1-11.3c16-8.9,29.5-22.4,46.7-28.7c7.3-2.7,15.3-4,21.9-8.1
		c3.6-2.2,7-6.3,5.4-10.2c-1.3-3.2-5.2-4.2-8.5-4.9c-3.9-0.8-7.9-1.6-11.8-2.3c-2.8-0.6-5.8-1.2-7.9-3.1c-3.7-3.3-3.6-9.2-2.1-14
		c1-3.1,2.4-6.2,3.3-9.3l-21.4-12.3c-2,0.3-4,0.5-6,0.5c-3,0-6.1-0.4-9.1-1.6c-5.4-2.1-10.7-6.4-16.1-6.4c-1.1,0-2.1,0.2-3.2,0.5
		c1.2,7.2,3.2,14.4,5.8,21.2c0.4,0,0.8,0,1.3,0c3.5,0,7.7,0.8,13.3,2.5c10.9,3.3,18.6,5.9,18.6,5.9c8,2.8,15.6,7.7,9.4,21.8
		c0,0,0,0,0,0v0c0,0.1-0.1,0.1-0.1,0.2c0,0,0,0,0,0c0,0,0,0,0,0c0,0,0,0,0,0c0,0,0,0,0,0c0,0,0,0,0,0c0,0,0,0,0,0c0,0,0,0,0,0
		c0,0,0,0,0,0c0,0,0,0,0,0c0,0,0,0,0,0c0,0,0,0,0,0c0,0,0,0,0,0c0,0,0,0,0,0.1c0,0,0,0,0,0c0,0,0,0,0,0c0,0,0,0,0,0c0,0,0,0,0,0
		c0,0,0,0,0,0c0,0,0,0,0,0c0,0,0,0,0,0c0,0,0,0,0,0c0,0,0,0,0,0c0,0,0,0,0,0c0,0,0,0,0,0c0,0,0,0,0,0c0,0,0,0,0,0c0,0,0,0,0,0
		c0,0,0,0,0,0c0,0,0,0,0,0c0,0,0,0,0,0c0,0,0,0,0,0c0,0,0,0,0,0c0,0,0,0,0,0c0,0,0,0,0,0c0,0,0,0,0,0c0,0,0,0,0,0c0,0,0,0,0,0
		c0,0,0,0,0,0c0,0,0,0,0,0v0c0,0,0,0,0,0c0,0,0,0,0,0c0,0,0,0,0,0c0,0,0,0,0,0c0,0,0,0,0,0c0,0,0,0,0,0c0,0,0,0,0,0c0,0,0,0,0,0
		c0,0,0,0,0,0c0,0,0,0,0,0c0,0,0,0,0,0c0,0,0,0,0,0c0,0,0,0,0,0.1c0,0,0,0,0,0c0,0,0,0,0,0c0,0,0,0,0,0c0,0,0,0,0,0c0,0,0,0,0,0
		c0,0,0,0,0,0c0,0,0,0,0,0c0,0,0,0,0,0c0,0,0,0,0,0c0,0,0,0,0,0c0,0,0,0,0,0c0,0,0,0,0,0.1c0,0,0,0,0,0c0,0,0,0,0,0c0,0,0,0,0,0
		c0,0,0,0,0,0c0,0,0,0,0,0c0,0,0,0,0,0c0,0,0,0,0,0c0,0,0,0,0,0c0,0,0,0,0,0c0,0,0,0,0,0c0,0,0,0,0,0c0,0,0,0,0,0.1l0,0c0,0,0,0,0,0
		c0,0,0,0,0,0c0,0,0,0,0,0c0,0,0,0,0,0c0,0,0,0,0,0c0,0,0,0,0,0c0,0,0,0,0,0l0,0c0,0,0,0.1-0.1,0.1l0,0c0,0,0,0,0,0l0,0c0,0,0,0,0,0
		c0,0,0,0,0,0c0,0,0,0,0,0l0,0c0,0,0,0.1-0.1,0.1l0,0c0,0,0,0,0,0l0,0c0,0,0,0,0,0l0,0c-3.8,7-11,14.3-19.8,20.9l0,0c0,0,0,0,0,0
		l0,0c-0.1,0.1-0.2,0.1-0.3,0.2l0,0c0,0,0,0,0,0c0,0,0,0,0,0c0,0,0,0,0,0c0,0,0,0,0,0c0,0,0,0,0,0h0c0,0-0.1,0-0.1,0.1l0,0
		c0,0,0,0,0,0c0,0,0,0,0,0c0,0,0,0,0,0c0,0,0,0,0,0c0,0,0,0,0,0c0,0,0,0,0,0c0,0,0,0,0,0c0,0,0,0,0,0c0,0,0,0,0,0c0,0,0,0,0,0
		c0,0,0,0,0,0c0,0,0,0,0,0c0,0,0,0,0,0c0,0,0,0,0,0c0,0,0,0,0,0c0,0,0,0,0,0c0,0,0,0,0,0c0,0,0,0,0,0c0,0,0,0,0,0c0,0,0,0,0,0
		c0,0,0,0,0,0c0,0,0,0,0,0c0,0,0,0,0,0c0,0,0,0,0,0c0,0,0,0,0,0c0,0,0,0-0.1,0c0,0,0,0,0,0c0,0,0,0,0,0c0,0,0,0,0,0c0,0,0,0,0,0
		c0,0,0,0,0,0c0,0,0,0,0,0c0,0,0,0,0,0c0,0,0,0,0,0c0,0,0,0,0,0c0,0,0,0,0,0c0,0,0,0,0,0c0,0,0,0,0,0c0,0,0,0,0,0c0,0,0,0-0.1,0
		c0,0,0,0,0,0c0,0,0,0,0,0c0,0,0,0,0,0c0,0,0,0,0,0c0,0,0,0,0,0c0,0,0,0,0,0c0,0,0,0,0,0c0,0,0,0,0,0c0,0,0,0,0,0c0,0,0,0,0,0
		c0,0,0,0,0,0c-0.1,0-0.1,0.1-0.2,0.1l0,0c0,0,0,0,0,0c0,0,0,0,0,0c0,0,0,0,0,0c0,0,0,0,0,0c-1.4,1-2.7,2-4.2,2.9c0,0,0,0,0,0
		c0,0,0,0-0.1,0c0,0,0,0,0,0c0,0,0,0-0.1,0c0,0,0,0,0,0c0,0,0,0,0,0c0,0,0,0,0,0c0,0,0,0,0,0c0,0,0,0-0.1,0c0,0,0,0,0,0
		c0,0,0,0-0.1,0c0,0,0,0,0,0c-1.5,1-3.1,2-4.7,3c-0.9,0.6-1.8,1.1-2.7,1.7c-6.3,3.8-12.9,7.2-19.1,10c-7.1,3.2-13.7,5.5-19.1,6.7
		c-2.6,0.8-5.3,1.4-8.1,1.9l0,0c-1.1,0.1-2.2,0.2-3.3,0.3c-0.5,0-1,0.1-1.5,0.1c0,0,0,0,0,0c0,0,0,0,0,0c0,0,0,0,0,0c0,0,0,0,0,0
		c-0.9,0-1.7,0.1-2.6,0.1c-0.1,0-0.3,0-0.4,0c-0.1,0-0.2,0-0.2,0c-0.4,0-0.8,0-1.2,0c-0.1,0-0.1,0-0.2,0c0,0,0,0,0,0c0,0,0,0,0,0
		c-1.6,0-3.1-0.1-4.5-0.3c0,0,0,0,0,0c0,0,0,0,0,0c-0.5-0.1-1.1-0.1-1.6-0.2c-2-0.3-3.9-0.7-5.8-1.2c-0.7-0.2-1.5-0.4-2.2-0.6
		c-1.8-0.6-3.6-1.2-5.5-1.8c-0.6-0.2-1.2-0.4-1.8-0.7c-1.9-0.7-3.8-1.4-5.9-2.1c0,0,0,0,0,0c0,0,0,0,0,0c0,0,0,0,0,0v0
		c-1-0.3-1.9-0.7-3-1l0,0l0,0l0,0l0.1,0l0,0c0.1,0,0.3,0,0.5,0l0,0c0.3,0,0.7-0.1,1.2-0.2c-1.1,0.2-1.8,0.3-1.8,0.3
		c-1.4-0.4-2.2-2.4-2.5-5.3c-2.4-0.7-4.7-1.4-6.9-1.9c-1.1-0.3-2.2-0.5-3.3-0.5c-2.1,0-4,0.9-5.7,4.3c-2.4,5.1-2.7,7.7-9.8,13.1
		c-0.1,0.1-0.2,0.2-0.3,0.2l0,0c0,0,0,0,0,0c0,0,0,0,0,0c0,0,0,0,0,0c0,0,0,0,0,0c0,0,0,0,0,0c-3.8,2.9-8.6,5.9-13.5,9c0,0,0,0,0,0
		c-7.1,4.6-14.3,9.4-18.3,14.5c-1.1,2-1.8,4.3-2,6.7c-0.6,8.9-8.1,7.2-14.2,11.1c-3.3,2.1-5.7,4.7-9.7,5.6c-1.6,0.3-3.2,0.5-4.9,0.5
		c-2,0-4.1-0.3-6-0.7c-2.6-0.6-6.2-2.3-8.3-4.6c0,0,0,0,0,0.1C77.5,225.1,89.3,228.6,94.8,228.6 M225.5,126.5
		C225.5,126.5,225.5,126.5,225.5,126.5C225.5,126.5,225.5,126.5,225.5,126.5L225.5,126.5"/>
	<polyline class="st12" points="372.7,126.8 372.7,129 132.4,267.8 132.4,265.6 372.7,126.8 	"/>
	<path class="st15" d="M132.4,267.8L341.6,147c-0.2-0.6-0.4-1.2-0.5-1.9L132.4,265.6V267.8 M358.4,137.3l14.4-8.3v-2.2l-14.5,8.4
		c0,0,0,0,0,0l0,1.6c0,0,0,0,0,0c0,0.1,0,0.3,0,0.4c0,0,0.1,0,0.1,0C358.3,137.2,358.3,137.3,358.4,137.3"/>
	<polyline class="st12" points="132.4,265.6 20.4,200.9 20.4,203.1 132.4,267.8 132.4,265.6 	"/>
	<polyline class="st16" points="132.4,267.8 132.4,265.6 20.4,200.9 20.4,203.1 132.4,267.8 	"/>
	<path class="st12" d="M340.6,164.3c0.4-1.6,1.2-3.4,1.9-4.9c0.1-0.2,0.2-0.4,0.3-0.5c1.5-3,1.5-6.6-0.1-9.5
		c-0.1-0.1-0.1-0.2-0.2-0.3c-1-1.9-1.5-3.5-1.5-5.6c0-1.6,1.1-4.1,3.2-5.3c0.5-0.3,1-0.5,1.5-0.7c1-0.4,1.6-1.3,1.6-2.4l0-2.9l9.3,0
		l0,2.9c0,1,0.7,2,1.6,2.3c0.5,0.2,1,0.4,1.5,0.7c2.2,1.2,3.2,3.7,3.2,5.3c0,2.1-0.4,3.7-1.4,5.6c-0.1,0.1-0.1,0.2-0.2,0.3
		c-1.6,3-1.6,6.5-0.1,9.6c0.1,0.2,0.2,0.4,0.3,0.5c0.7,1.5,1.6,3.3,2,4.9c0.4,1.6,0.4,3.3,0.5,5l0.1,13.5c0,1.8-1.1,3.5-3.5,4.9
		c-1.9,1.1-4.3,1.8-6.7,2c-1.1,0.1-2.3,0.1-3.4,0c-2.5-0.2-4.8-0.8-6.7-1.9c-2.3-1.3-3.5-3.1-3.5-4.8l0-9.8c0-1.2-0.1-2.5-0.1-3.8
		C340.2,167.6,340.3,165.9,340.6,164.3"/>
	<path class="st4" d="M352.1,189.6c0.6,0,1.2,0,1.8-0.1c2.5-0.2,4.8-0.9,6.7-2c2.3-1.3,3.5-3.1,3.5-4.8c0,0,0,0,0,0l-0.1-13.5
		c0-1.7-0.1-3.4-0.5-5c-0.4-1.6-1.2-3.4-2-4.9c-0.1-0.2-0.2-0.4-0.3-0.5c-0.8-1.5-1.2-3.1-1.2-4.7c0-1.7,0.4-3.3,1.2-4.8
		c0.1-0.1,0.1-0.2,0.2-0.3c1-1.9,1.4-3.4,1.4-5.5c0,0,0-0.1,0-0.1c0-1.6-1.1-4.1-3.2-5.3c-0.5-0.3-1-0.5-1.5-0.7c0,0-0.1,0-0.1,0
		c-0.1,0.8-0.7,1.6-1.8,2.2c-1.2,0.7-2.9,1.1-4.5,1.1c-1.6,0-3.2-0.4-4.4-1.1c-0.6-0.4-1.1-0.8-1.4-1.2c-0.2-0.3-0.3-0.6-0.4-0.9
		c-0.5,0.2-1,0.4-1.4,0.7c-2.1,1.2-3.2,3.7-3.2,5.3c0,0,0,0,0,0c0,0.6,0,1.2,0.1,1.7l0,0c0.1,0.7,0.2,1.3,0.5,1.9
		c0.2,0.6,0.5,1.3,0.9,2c0.1,0.1,0.1,0.2,0.2,0.3c-0.1-0.1-0.1-0.2-0.2-0.3c-0.9-1.6-1.3-3-1.4-4.8c0.2,0.7,0.5,1.3,0.9,1.9
		c1.1,1.7,2.6,3.1,4.2,4.4c1.6,1.3,3.4,2.8,3.6,4.8c0.2,2-1.2,3.8-2.8,5c-1.6,1.2-3.5,2-4.9,3.4c-0.6,0.6-1.1,1.3-1.6,2
		c0.1-0.5,0.1-1,0.2-1.5c-0.3,1.5-0.4,3.1-0.4,4.7c0,0.1,0,0.2,0,0.2c0,1.3,0.1,2.6,0.1,3.8l0,9.8c0,1.8,1.2,3.5,3.5,4.8
		c1.9,1.1,4.2,1.7,6.7,1.9C351,189.6,351.6,189.6,352.1,189.6"/>
	<path class="st8" d="M340.6,164.3C340.6,164.3,340.6,164.3,340.6,164.3C340.6,164.3,340.6,164.3,340.6,164.3 M340.6,164.3
		c0.4-1.6,1.2-3.4,1.9-4.9C341.8,160.9,341,162.6,340.6,164.3 M342.5,159.3c0.1-0.2,0.2-0.4,0.3-0.5
		C342.7,159,342.6,159.1,342.5,159.3"/>
	<path class="st10" d="M340.4,165.8c0.5-0.7,1-1.4,1.6-2c1.4-1.4,3.3-2.2,4.9-3.4c1.6-1.2,3-3,2.8-5c-0.2-2-2-3.5-3.6-4.8
		c-1.6-1.3-3.1-2.6-4.2-4.4c-0.4-0.6-0.7-1.3-0.9-1.9c0.1,1.7,0.6,3.1,1.4,4.8c0.1,0.1,0.1,0.2,0.2,0.3l0,0c0.1,0.2,0.3,0.5,0.4,0.7
		c0.6,1.3,0.9,2.7,0.9,4.1l0,0c0,1.6-0.4,3.2-1.1,4.7l0,0c-0.1,0.2-0.2,0.4-0.3,0.5l0,0c0,0,0,0,0,0c-0.7,1.5-1.5,3.3-1.9,4.9l0,0
		l0,0c0,0,0,0,0,0C340.5,164.8,340.4,165.3,340.4,165.8"/>
	<path class="st12" d="M358.2,135.2l0,1.6c0,0.9-0.6,1.9-1.8,2.6c-2.5,1.4-6.5,1.4-8.9,0c-0.6-0.4-1.1-0.8-1.4-1.2
		c-0.3-0.4-0.5-0.9-0.5-1.4l0-1.6c0-0.1,0-0.3,0-0.4c0.2-0.8,0.7-1.6,1.8-2.2l0.1,0c2.5-1.4,6.4-1.4,8.9,0c1,0.6,1.7,1.4,1.8,2.1
		C358.2,134.9,358.2,135.1,358.2,135.2"/>
	<path class="st17" d="M351.8,140.5c1.6,0,3.3-0.4,4.5-1.1c1.2-0.7,1.8-1.6,1.8-2.6c0,0,0,0,0,0l0-1.6c0-0.1,0-0.2,0-0.2
		c0.1,1-0.5,2-1.8,2.8c-1.2,0.7-2.9,1.1-4.5,1.1c-1.6,0-3.2-0.4-4.4-1.1c-1.2-0.7-1.8-1.6-1.9-2.5l0,1.5c0,0.5,0.2,0.9,0.5,1.4
		c0.3,0.4,0.8,0.9,1.4,1.2C348.6,140.1,350.2,140.5,351.8,140.5"/>
	<path class="st18" d="M345.5,135.3L345.5,135.3C345.5,135.3,345.5,135.3,345.5,135.3c0-0.2,0-0.4,0-0.5c0,0,0,0,0,0
		C345.5,135,345.5,135.2,345.5,135.3 M358.2,135c0-0.1,0-0.1,0-0.2c0,0,0,0,0,0C358.2,134.9,358.2,134.9,358.2,135"/>
	<path class="st19" d="M351.8,138.9c1.6,0,3.3-0.4,4.5-1.1c1.3-0.8,1.9-1.8,1.8-2.8c0-0.1,0-0.1,0-0.2l0,0c-0.2,0.8-0.8,1.6-1.8,2.2
		c-1.1,0.6-2.5,1-3.9,1.1c-0.2,0-0.4,0-0.6,0c-1.6,0-3.2-0.3-4.4-1.1c-0.6-0.4-1.1-0.8-1.4-1.2c-0.2-0.3-0.4-0.6-0.4-0.9l0,0
		c0,0.1,0,0.3,0,0.4c0,0,0,0,0,0l0,0.1c0,0.9,0.7,1.8,1.9,2.5C348.6,138.5,350.2,138.9,351.8,138.9"/>
	<path class="st12" d="M358.2,133.4l0,0.9c0,0.1,0,0.3,0,0.4c-0.2,0.8-0.8,1.6-1.8,2.2c-1.1,0.6-2.5,1-3.9,1.1c-1.8,0.1-3.6-0.2-5-1
		c-0.6-0.4-1.1-0.8-1.4-1.2c-0.2-0.3-0.4-0.6-0.4-0.9c0-0.1,0-0.3-0.1-0.4l0-1c0-0.9,0.6-1.9,1.8-2.6c0.1-0.1,0.2-0.1,0.3-0.2
		c2.5-1.3,6.2-1.2,8.6,0.1C357.6,131.5,358.2,132.5,358.2,133.4"/>
	<path class="st17" d="M351.8,138c0.2,0,0.4,0,0.6,0c1.4-0.1,2.8-0.4,3.9-1.1c1-0.6,1.6-1.4,1.8-2.2c0-0.1,0-0.3,0-0.4c0,0,0,0,0,0
		l0-0.9c0,0,0,0,0,0c0,2-2.8,3.6-6.3,3.6c0,0,0,0,0,0c-3.5,0-6.3-1.6-6.3-3.6l0,1c0,0.1,0,0.3,0.1,0.4c0.1,0.3,0.2,0.6,0.4,0.9
		c0.3,0.4,0.8,0.8,1.4,1.2C348.6,137.7,350.2,138,351.8,138"/>
	<path class="st12" d="M358.2,133.4c0,2-2.8,3.6-6.3,3.7c-3.5,0-6.3-1.6-6.3-3.6c0-2,2.8-3.6,6.3-3.7
		C355.3,129.7,358.2,131.4,358.2,133.4"/>
	<path class="st12" d="M354,129.6l0,3.3l0,0.2c-0.1,0.3-0.3,0.5-0.6,0.7c-0.4,0.2-0.9,0.3-1.4,0.4c-0.6,0-1.3-0.1-1.7-0.4
		c-0.2-0.1-0.4-0.3-0.5-0.4c-0.1-0.1-0.1-0.2-0.1-0.3l0-0.1l0-3.3c0-0.3,0.2-0.6,0.6-0.9l0.1-0.1c0.9-0.4,2.2-0.4,3,0.1
		C353.8,129,354,129.3,354,129.6"/>
	<path class="st17" d="M351.8,134.2c0.1,0,0.1,0,0.2,0c0.5,0,1-0.1,1.4-0.4c0.4-0.2,0.6-0.5,0.6-0.7l0-0.2l0-3.3c0,0,0,0,0,0
		c0,0.7-1,1.3-2.2,1.3c0,0,0,0,0,0c-1.2,0-2.2-0.6-2.2-1.3c0,0,0,0,0,0l0,3.3l0,0.1c0,0.1,0.1,0.2,0.1,0.3c0.1,0.2,0.3,0.3,0.5,0.4
		C350.7,134.1,351.3,134.2,351.8,134.2"/>
	<path class="st12" d="M354,129.6c0,0.7-1,1.3-2.2,1.3c-1.2,0-2.2-0.6-2.2-1.3c0-0.7,1-1.3,2.2-1.3C353,128.4,354,128.9,354,129.6"
		/>
	<path class="st4" d="M351.8,130.1C351.8,130.1,351.8,130.1,351.8,130.1c0.4,0,0.8-0.2,0.8-0.5c0-0.2-0.3-0.4-0.8-0.4c0,0,0,0,0,0
		c-0.4,0-0.8,0.2-0.8,0.5C351.1,129.9,351.4,130.1,351.8,130.1"/>
	<path class="st20" d="M246.4,106.6c0,0-5.8-47.2-4.5-64.4c0.7-8.8,4.9-10.8,11.5-10.3c6.5,0.5,43.9,20.4,43.9,20.4l-5.3,12.8
		l-31.1-9.8c0,0,3.2,18.3,3.9,21.8c0.7,3.5,2.3,8.2,3.5,12.4c0.6,2.1,1.4,4.8,1.4,6.1C269.6,98.7,246.4,106.6,246.4,106.6
		L246.4,106.6z"/>
	<path class="st21" d="M260.8,55.4c-4.3-0.9-8.7-3.4-10-5.4c0,0,0.7,3.2,4.3,5.4c3.7,2.3,6.2,3.2,6.2,3.2L260.8,55.4L260.8,55.4z"/>
	<path class="st22" d="M187.5,105.8c0.6-2.4,4.9-4.9,17.4-7c12.6-2.1,24,0,24.1,1.5c0.1,1.5-3.1,11.4-17.6,13.2
		C197,115.3,186.2,111.1,187.5,105.8L187.5,105.8z"/>
	<path class="st20" d="M225.3,126.2c0,0,8.2-53.1,7-63.9c-1.2-11.2-5.5-16.4-12.6-17.1c-9.3,5.4-14.3,18.3-20.2,31.1
		c-6,12.7-12.4,40.1-12.7,53.1c-0.3,13,10,22.4,21.7,24.1C220.2,155.1,225.3,126.2,225.3,126.2"/>
	<path class="st21" d="M212.5,84.7c6.5-5.4,7.2-12.1,7.2-12.1L208,68.5l-7.9,6.6c-0.1,0.2-0.2,0.3-0.2,0.5c-0.1,0.2-0.2,0.4-0.3,0.7
		c-0.2,0.5-0.5,1-0.7,1.5c-0.1,0.2-0.1,0.3-0.2,0.5c-0.2,0.4-0.3,0.8-0.5,1.3c-0.1,0.1-0.1,0.3-0.2,0.4c-0.2,0.6-0.5,1.2-0.7,1.8
		l0,0c-0.2,0.6-0.5,1.2-0.7,1.9c0,0.1-0.1,0.3-0.1,0.4c-0.2,0.6-0.4,1.2-0.6,1.8c0,0.1-0.1,0.2-0.1,0.3c-0.5,1.4-0.9,2.9-1.4,4.4
		c0,0.1,0,0.2-0.1,0.2c-0.2,0.7-0.4,1.5-0.7,2.3l0,0C193.6,93,204.5,91.4,212.5,84.7L212.5,84.7z"/>
	<path class="st20" d="M222.2,45.6c-4.4-1.8-9.9,2.3-12.7,4.2c-5.8,3.7-41.4,31.5-49.7,38c-1.8,1.1-3.6,2.1-5.5,3.1l9.8,15.3
		c0.8-2.3,2.1-4.2,3.7-5.9c8.9-6.3,26-9.8,37.1-14.1c8.6-3.3,10.4-5.2,13.3-10.1C220.3,72.2,228.4,48.5,222.2,45.6L222.2,45.6z"/>
	<path class="st23" d="M225.5,126.5l3.5-26.3c0,0-3.2,7.2-19.4,9.1c-16.3,1.9-22.5-0.8-22.1-3.6c0,0-4.2,16.4-2.6,27.1
		c1.6,10.7,17.9,22.1,17.9,22.1L225.5,126.5"/>
	<path class="st24" d="M184.6,129.5L184.6,129.5c-0.3-6.3,0.8-13.7,1.8-18.5C185.5,115.8,184.3,123.1,184.6,129.5"/>
	<path class="st25" d="M184.6,129.5c4.2-0.3,8.4-0.4,12.3-0.5c2.3-1,4.4-1.4,6.1-1.4c0.5,0,1,0,1.5,0.1l0,0c0.3,0,0.7,0,1.2-0.1
		c-11.7-4.6-19.3-14.1-18.8-18.6c-0.1,0.6-0.3,1.3-0.4,2.1C185.5,115.8,184.3,123.1,184.6,129.5 M204.5,127.7c-0.1,0-0.1,0-0.1,0
		C204.5,127.6,204.5,127.7,204.5,127.7"/>
	<path class="st12" d="M136.9,68.7c5.8-1.1,8.6,3.1,10.8,6.6c2.2,3.5,5.8,9.9,7.4,11c1.6,1.1,2.6,0,4.8,1.7c2.3,1.8,4,5,3.3,6.2
		c-0.7,1.2-1.7,2.9-1.7,2.9s2.7-0.5,5.2,2c2.5,2.5,1.2,2.9-0.2,4.4c-1.4,1.4-4.7,7.9-8.1,9.6c0,0-9-2.7-15.5-12.9
		C136.4,90.1,136.9,68.7,136.9,68.7L136.9,68.7z"/>
	<path class="st23" d="M156.6,114.6c1-0.2,2.5-1.2,2-3.1c-0.5-2-2.2-5.6-4.4-8.8c-2.3-3.2-6.5-9.2-7.2-12.5
		c-0.7-3.3-2.2-12.5-4.8-16.4c-2.5-3.9-5.1-6.1-8.4-4.9c-3.3,1.2,7.1,26.1,10.2,30.2C147.1,103.3,156.6,114.6,156.6,114.6
		L156.6,114.6z"/>
	<path class="st22" d="M154.7,114c-8.3-4.4-11-8.7-13.4-14.2c-2.4-5.6-8.2-10.7-9.6-15.7c-1.5-5-1.6-17.9,4.1-14.8
		c5.7,3.1,6.9,14.6,9.4,21.3C147.6,97.2,162.8,118.3,154.7,114L154.7,114z"/>
	<path class="st22" d="M204.4,127.6c-3.8-0.6-11,1-17.6,10.2c-7.1,9.9-8.4,27.1-4,28.5c0,0,10.3-1.2,17.4-4.9
		C207.2,157.7,219.1,132.7,204.4,127.6"/>
	<path class="st20" d="M83.7,209.9c11-4.3,19.9-11.7,27.7-20c6.2-8.5,33-44.8,37.7-49.9c1.6-1.8,5.7-6.5,11.2-7.7
		c19.5-4.1,55.7-3.6,55.7-3.6l13.9-2.3l27.7,26.1c-3.8,4.1-8.6,7.6-15.6,11.3c-7,3.7-14.6,6.3-24.8,5.4
		c-20.5-1.7-32.7-7.5-43.7-10.1c-3.2-0.7-6.5-1.4-9,3.8c-2.5,5.1-2.7,7.8-10.1,13.3c-9.5,7.1-25.1,15-31.9,23.5
		c-1.1,2-1.8,4.3-2,6.7c-0.6,8.9-8.1,7.2-14.2,11.1c-3.3,2.1-5.7,4.7-9.7,5.6c-3.5,0.8-7.4,0.6-10.9-0.2c-3.2-0.8-7.8-3.1-9.4-6.2
		C74.2,212.5,80.5,211.1,83.7,209.9"/>
	<path class="st20" d="M83.7,209.9c11-4.3,19.9-11.7,27.7-20c6.2-8.5,33-44.8,37.7-49.9c1.6-1.8,5.7-6.5,11.2-7.7
		c19.5-4.1,55.7-3.6,55.7-3.6l13.9-2.3l27.7,26.1c-3.8,4.1-8.6,7.6-15.6,11.3c-7,3.7-14.6,6.3-24.8,5.4
		c-20.5-1.7-32.7-7.5-43.7-10.1c-3.2-0.7-6.5-1.4-9,3.8c-2.5,5.1-2.7,7.8-10.1,13.3c-9.5,7.1-25.1,15-31.9,23.5
		c-1.1,2-1.8,4.3-2,6.7c-0.6,8.9-8.1,7.2-14.2,11.1c-3.3,2.1-5.7,4.7-9.7,5.6c-3.5,0.8-7.4,0.6-10.9-0.2c-3.2-0.8-7.8-3.1-9.4-6.2
		C74.2,212.5,80.5,211.1,83.7,209.9"/>
	<path class="st21" d="M155,172c2.1-2.2,3.6-5.1,4.6-8c0.9-2.4,1.6-4.9,2.9-7.1c3.4-5.9,26,1.6,36,4.7c0.6,0.9,2.9,3.4,3.8,5.5
		c-12.1-2.5-20.9-6.1-28.9-8c-3.2-0.7-6.5-1.4-9,3.8c-2.5,5.1-2.7,7.8-10.1,13.3c-3.8,2.9-8.7,5.9-13.6,9.1
		C146.2,181.1,150.3,176.8,155,172"/>
	<path class="st26" d="M227.7,126.4c0,0-19.9,1-23.3,1.2c0,0,7.5,2-1.6,20.4c-9.1,18.4-20,18.3-20,18.3c14.3,4.6,21.7,9.7,39.9,7.6
		c21.7-3.1,34.8-19.4,34.8-19.4L227.7,126.4"/>
	<path class="st27" d="M214.7,174.4c0.1,0,0.2,0,0.2,0c0.1,0,0.3,0,0.4,0C215.1,174.4,214.9,174.4,214.7,174.4c-0.5,0-0.9,0-1.4,0
		c0.1,0,0.1,0,0.2,0C213.9,174.4,214.3,174.4,214.7,174.4 M213.2,174.4C213.2,174.4,213.2,174.4,213.2,174.4
		C213.2,174.4,213.2,174.4,213.2,174.4 M217.8,174.3C217.8,174.3,217.9,174.3,217.8,174.3L217.8,174.3 M217.9,174.3
		C217.9,174.3,217.9,174.3,217.9,174.3C217.9,174.3,217.9,174.3,217.9,174.3 M217.9,174.3c0.5,0,1-0.1,1.5-0.1
		c1.1-0.1,2.2-0.2,3.3-0.3l0,0l0,0C221,174.1,219.4,174.2,217.9,174.3 M208.7,174.1C208.7,174.1,208.7,174.1,208.7,174.1
		C208.7,174.1,208.7,174.1,208.7,174.1 M208.7,174.1c-6.2-0.7-11.2-2.5-16.9-4.6c0.6,0.2,1.2,0.5,1.8,0.7c1.8,0.7,3.6,1.3,5.5,1.8
		c0.7,0.2,1.5,0.4,2.2,0.6c1.8,0.5,3.7,0.9,5.8,1.2C207.6,173.9,208.1,174,208.7,174.1 M185.8,167.3L185.8,167.3
		C185.8,167.3,185.8,167.3,185.8,167.3 M185.8,167.3C185.8,167.3,185.8,167.3,185.8,167.3C185.8,167.3,185.8,167.3,185.8,167.3
		 M185.8,167.3c-1-0.3-1.9-0.7-3-1l0,0C183.8,166.7,184.8,167,185.8,167.3 M182.8,166.3c0.1,0,0.7,0,1.8-0.3c0,0,0,0,0,0
		c-0.5,0.1-0.9,0.2-1.2,0.2l0,0C183.1,166.3,183,166.3,182.8,166.3L182.8,166.3L182.8,166.3C182.8,166.3,182.8,166.3,182.8,166.3"/>
	<path class="st28" d="M184.6,166.1C184.6,166.1,184.6,166.1,184.6,166.1c1.2-0.3,3-0.9,5.1-2.2c0,0,0,0,0,0
		C187.6,165.2,185.8,165.8,184.6,166.1"/>
	<path class="st29" d="M189.7,163.9C189.7,163.9,189.7,163.9,189.7,163.9C189.7,163.9,189.7,163.9,189.7,163.9
		C189.7,163.9,189.7,163.9,189.7,163.9C189.7,163.9,189.7,163.9,189.7,163.9 M194.3,160.3c0.3-0.3,0.7-0.7,1-1c0,0,0,0,0,0l0,0
		C194.9,159.7,194.6,160,194.3,160.3C194.3,160.3,194.3,160.3,194.3,160.3"/>
	<path class="st30" d="M189.7,163.9c1.4-0.9,2.9-2,4.6-3.6c0,0,0,0,0,0C192.6,161.9,191.1,163,189.7,163.9
		C189.7,163.9,189.7,163.9,189.7,163.9"/>
	<path class="st31" d="M214.7,174.4c0.2,0,0.4,0,0.6,0c0.3,0,0.7,0,1,0c0.5,0,1,0,1.5-0.1h0c0,0,0,0,0,0c0,0,0,0,0,0c0,0,0,0,0,0
		c1.5-0.1,3.1-0.2,4.8-0.4l0,0c0.7-0.1,1.4-0.2,2.1-0.3c0.1,0,0.2,0,0.3-0.1c0.6-0.1,1.2-0.2,1.8-0.4l0.2,0c0.6-0.1,1.2-0.3,1.9-0.5
		l0,0c0.7-0.2,1.3-0.4,1.9-0.6l0,0c0,0,0,0,0,0l0,0c0,0,0,0,0,0l0,0c2.6-3.9,4-7.8,4.6-11.7c-5.8,1.8-11.3,2.6-17,2.6
		c-3.3,0-6.6-0.3-10.2-0.8c-4.5-0.7-8.9-1.6-13-2.7c-0.3,0.4-0.7,0.7-1,1c-1.6,1.6-3.2,2.7-4.6,3.6c0,0,0,0,0,0
		c-2.1,1.3-3.9,1.9-5.1,2.2c-1.1,0.3-1.7,0.3-1.8,0.3c0,0,0,0,0,0l0,0c1,0.3,2,0.7,3,1v0c0,0,0,0,0,0c0,0,0,0,0,0h0
		c1.9,0.7,3.8,1.3,5.5,2c0.1,0,0.3,0.1,0.4,0.1c5.6,2.1,10.7,3.9,16.9,4.6c0,0,0,0,0,0c0,0,0,0,0,0c0.3,0,0.5,0.1,0.8,0.1
		c1.2,0.1,2.4,0.2,3.7,0.2c0,0,0,0,0,0c0,0,0,0,0,0C213.7,174.4,214.2,174.4,214.7,174.4"/>
	<path class="st12" d="M294.1,101.4c8.1,2.8,15.7,7.7,9.3,22.1c-9.3,20.7-51.1,43.7-72.6,48.6c10.9-16.5,1.8-34-5.3-45.5l1.9-14
		c0,0,6.5-3.1,17.1-11.4c10.7-8.3,15.1-10.5,31-5.7C286.4,98.8,294.1,101.4,294.1,101.4"/>
	<path class="st32" d="M230.8,172c5.4-1.2,12-3.6,19.1-6.7c6.2-2.8,12.7-6.2,19.1-10c0.9-0.5,1.8-1.1,2.7-1.7c1.6-1,3.1-2,4.7-3
		C260.9,161,242.8,169.3,230.8,172L230.8,172"/>
	<path class="st33" d="M230.8,172C230.8,172,230.8,172,230.8,172L230.8,172C230.8,172,230.8,172,230.8,172L230.8,172 M230.8,172
		C230.8,172,230.8,172,230.8,172C230.8,172,230.8,172,230.8,172C230.8,172,230.8,172,230.8,172"/>
	<path class="st34" d="M230.8,172L230.8,172C230.8,172,230.8,172,230.8,172C230.8,172,230.8,172,230.8,172 M230.8,172
		C230.8,172,230.8,172,230.8,172C230.8,172,230.8,172,230.8,172"/>
	<polyline class="st33" points="235.5,160.2 235.5,160.2 235.5,160.2 235.5,160.2 235.5,160.2 	"/>
	<path class="st34" d="M230.9,171.9c2.6-3.9,4-7.8,4.6-11.7c0,0,0,0,0,0C234.9,164.1,233.4,168.1,230.9,171.9"/>
	<path class="st32" d="M276.4,150.6C276.4,150.6,276.4,150.6,276.4,150.6C276.4,150.6,276.4,150.6,276.4,150.6 M276.4,150.6
		C276.5,150.6,276.5,150.5,276.4,150.6C276.5,150.5,276.5,150.6,276.4,150.6 M276.5,150.5C276.5,150.5,276.6,150.5,276.5,150.5
		C276.6,150.5,276.5,150.5,276.5,150.5 M276.6,150.5C276.6,150.4,276.6,150.4,276.6,150.5C276.6,150.4,276.6,150.4,276.6,150.5
		 M276.7,150.4C276.7,150.4,276.7,150.4,276.7,150.4C276.7,150.4,276.7,150.4,276.7,150.4 M276.8,150.3
		C276.8,150.3,276.8,150.3,276.8,150.3L276.8,150.3 M281,147.4C281,147.4,281,147.4,281,147.4C281,147.4,281,147.4,281,147.4
		 M281,147.4C281,147.4,281,147.4,281,147.4C281,147.4,281,147.4,281,147.4 M281,147.4L281,147.4L281,147.4 M281.2,147.2
		C281.2,147.2,281.2,147.2,281.2,147.2C281.2,147.2,281.2,147.2,281.2,147.2 M281.2,147.2C281.2,147.2,281.2,147.2,281.2,147.2
		C281.2,147.2,281.2,147.2,281.2,147.2 M281.3,147.2C281.3,147.2,281.3,147.2,281.3,147.2C281.3,147.2,281.3,147.2,281.3,147.2
		 M281.3,147.2C281.3,147.2,281.3,147.1,281.3,147.2C281.3,147.1,281.3,147.2,281.3,147.2 M281.3,147.1
		C281.3,147.1,281.3,147.1,281.3,147.1C281.3,147.1,281.3,147.1,281.3,147.1 M281.4,147.1C281.4,147.1,281.4,147.1,281.4,147.1
		C281.4,147.1,281.4,147.1,281.4,147.1 M281.4,147.1C281.4,147.1,281.4,147.1,281.4,147.1C281.4,147.1,281.4,147.1,281.4,147.1
		 M281.5,147C281.5,147,281.5,147,281.5,147C281.5,147,281.5,147,281.5,147 M281.5,147C281.5,147,281.5,147,281.5,147
		C281.5,147,281.5,147,281.5,147 M281.5,147C281.5,147,281.5,147,281.5,147C281.5,147,281.5,147,281.5,147 M281.6,147
		C281.6,147,281.6,146.9,281.6,147C281.6,146.9,281.6,147,281.6,147 M281.6,146.9C281.6,146.9,281.6,146.9,281.6,146.9
		C281.6,146.9,281.6,146.9,281.6,146.9 M281.6,146.9C281.6,146.9,281.6,146.9,281.6,146.9C281.6,146.9,281.6,146.9,281.6,146.9
		 M281.7,146.9C281.7,146.9,281.7,146.9,281.7,146.9C281.7,146.9,281.7,146.9,281.7,146.9 M281.7,146.8
		C281.7,146.8,281.7,146.8,281.7,146.8C281.7,146.8,281.7,146.8,281.7,146.8 M281.8,146.8C281.8,146.8,281.8,146.8,281.8,146.8
		C281.8,146.8,281.8,146.8,281.8,146.8 M281.8,146.8C281.8,146.8,281.8,146.8,281.8,146.8C281.8,146.8,281.8,146.8,281.8,146.8
		 M281.8,146.8C281.8,146.8,281.8,146.7,281.8,146.8C281.8,146.7,281.8,146.8,281.8,146.8 M281.9,146.7
		C281.9,146.7,281.9,146.7,281.9,146.7C281.9,146.7,281.9,146.7,281.9,146.7 M281.9,146.7C281.9,146.7,281.9,146.7,281.9,146.7
		C281.9,146.7,281.9,146.7,281.9,146.7 M281.9,146.7C282,146.7,282,146.7,281.9,146.7C282,146.7,282,146.7,281.9,146.7 M282,146.6
		C282,146.6,282,146.6,282,146.6C282,146.6,282,146.6,282,146.6 M282,146.6C282,146.6,282,146.6,282,146.6
		C282,146.6,282,146.6,282,146.6 M282.1,146.6C282.1,146.6,282.1,146.6,282.1,146.6C282.1,146.6,282.1,146.6,282.1,146.6
		 M282.1,146.6C282.1,146.6,282.1,146.5,282.1,146.6C282.1,146.5,282.1,146.6,282.1,146.6 M282.1,146.5
		C282.1,146.5,282.2,146.5,282.1,146.5C282.2,146.5,282.1,146.5,282.1,146.5 M282.2,146.5C282.2,146.5,282.2,146.5,282.2,146.5
		C282.2,146.5,282.2,146.5,282.2,146.5 M282.2,146.4C282.3,146.4,282.3,146.4,282.2,146.4C282.3,146.4,282.3,146.4,282.2,146.4
		 M282.3,146.4C282.3,146.4,282.3,146.4,282.3,146.4C282.3,146.4,282.3,146.4,282.3,146.4 M282.3,146.4
		C282.3,146.4,282.4,146.4,282.3,146.4C282.4,146.4,282.3,146.4,282.3,146.4 M282.4,146.4c0.1-0.1,0.2-0.1,0.3-0.2
		C282.5,146.2,282.5,146.3,282.4,146.4 M282.6,146.2C282.6,146.2,282.7,146.1,282.6,146.2C282.7,146.1,282.6,146.2,282.6,146.2
		 M282.7,146.1c8.8-6.6,16.1-13.9,19.8-20.9C298.7,132.3,291.5,139.5,282.7,146.1 M302.5,125.2C302.5,125.2,302.5,125.2,302.5,125.2
		C302.5,125.2,302.5,125.2,302.5,125.2 M302.5,125.2C302.5,125.2,302.5,125.2,302.5,125.2C302.5,125.2,302.5,125.2,302.5,125.2
		 M302.5,125.2c0,0,0-0.1,0.1-0.1C302.6,125.1,302.6,125.1,302.5,125.2 M302.6,125.1C302.6,125.1,302.6,125,302.6,125.1
		C302.6,125,302.6,125.1,302.6,125.1 M302.6,125C302.6,125,302.6,125,302.6,125C302.6,125,302.6,125,302.6,125 M302.6,125
		C302.6,125,302.6,125,302.6,125C302.6,125,302.6,125,302.6,125 M302.6,125c0,0,0-0.1,0.1-0.1C302.7,124.9,302.7,124.9,302.6,125
		 M302.7,124.8C302.7,124.8,302.7,124.8,302.7,124.8C302.7,124.8,302.7,124.8,302.7,124.8 M302.7,124.8
		C302.7,124.8,302.7,124.8,302.7,124.8C302.7,124.8,302.7,124.8,302.7,124.8 M302.7,124.8C302.7,124.8,302.8,124.8,302.7,124.8
		C302.8,124.8,302.7,124.8,302.7,124.8 M302.8,124.8C302.8,124.7,302.8,124.7,302.8,124.8C302.8,124.7,302.8,124.7,302.8,124.8
		 M302.8,124.7C302.8,124.7,302.8,124.7,302.8,124.7C302.8,124.7,302.8,124.7,302.8,124.7 M302.8,124.7
		C302.8,124.7,302.8,124.6,302.8,124.7C302.8,124.6,302.8,124.7,302.8,124.7 M302.8,124.6C302.8,124.6,302.8,124.6,302.8,124.6
		C302.8,124.6,302.8,124.6,302.8,124.6 M302.8,124.6C302.8,124.6,302.8,124.6,302.8,124.6C302.8,124.6,302.8,124.6,302.8,124.6
		 M302.9,124.6C302.9,124.6,302.9,124.6,302.9,124.6C302.9,124.6,302.9,124.6,302.9,124.6 M302.9,124.5
		C302.9,124.5,302.9,124.5,302.9,124.5C302.9,124.5,302.9,124.5,302.9,124.5 M302.9,124.5C302.9,124.5,302.9,124.5,302.9,124.5
		C302.9,124.5,302.9,124.5,302.9,124.5 M302.9,124.4C302.9,124.4,302.9,124.4,302.9,124.4C302.9,124.4,302.9,124.4,302.9,124.4
		 M302.9,124.4C302.9,124.4,302.9,124.4,302.9,124.4C302.9,124.4,302.9,124.4,302.9,124.4 M302.9,124.4
		C302.9,124.4,303,124.4,302.9,124.4C302.9,124.4,302.9,124.4,302.9,124.4 M303,124.4C303,124.4,303,124.3,303,124.4
		C303,124.3,303,124.4,303,124.4 M303,124.3C303,124.3,303,124.3,303,124.3C303,124.3,303,124.3,303,124.3 M303,124.3
		C303,124.3,303,124.3,303,124.3C303,124.3,303,124.3,303,124.3 M303,124.2C303,124.2,303,124.2,303,124.2
		C303,124.2,303,124.2,303,124.2 M303,124.2C303,124.2,303,124.2,303,124.2C303,124.2,303,124.2,303,124.2 M303,124.2
		C303.1,124.2,303.1,124.2,303,124.2C303.1,124.2,303.1,124.2,303,124.2 M303.1,124.1C303.1,124.1,303.1,124.1,303.1,124.1
		C303.1,124.1,303.1,124.1,303.1,124.1 M303.1,124.1C303.1,124.1,303.1,124.1,303.1,124.1C303.1,124.1,303.1,124.1,303.1,124.1
		 M303.1,124.1C303.1,124.1,303.1,124.1,303.1,124.1C303.1,124.1,303.1,124.1,303.1,124.1 M303.1,124.1
		C303.1,124,303.1,124,303.1,124.1C303.1,124,303.1,124,303.1,124.1 M303.1,124C303.1,124,303.1,124,303.1,124
		C303.1,124,303.1,124,303.1,124 M303.1,124C303.1,124,303.1,124,303.1,124C303.1,124,303.1,124,303.1,124 M303.2,124
		C303.2,124,303.2,123.9,303.2,124C303.2,123.9,303.2,124,303.2,124 M303.2,123.9C303.2,123.9,303.2,123.9,303.2,123.9
		C303.2,123.9,303.2,123.9,303.2,123.9 M303.2,123.9C303.2,123.9,303.2,123.9,303.2,123.9C303.2,123.9,303.2,123.9,303.2,123.9
		 M303.2,123.9C303.2,123.9,303.2,123.9,303.2,123.9C303.2,123.9,303.2,123.9,303.2,123.9 M303.2,123.8
		C303.2,123.8,303.2,123.8,303.2,123.8C303.2,123.8,303.2,123.8,303.2,123.8 M303.2,123.8C303.2,123.8,303.2,123.8,303.2,123.8
		C303.2,123.8,303.2,123.8,303.2,123.8 M303.2,123.8C303.2,123.8,303.2,123.8,303.2,123.8C303.2,123.8,303.2,123.8,303.2,123.8
		 M303.3,123.7C303.3,123.7,303.3,123.7,303.3,123.7C303.3,123.7,303.3,123.7,303.3,123.7 M303.3,123.7
		C303.3,123.7,303.3,123.7,303.3,123.7C303.3,123.7,303.3,123.7,303.3,123.7 M303.3,123.7C303.3,123.7,303.3,123.7,303.3,123.7
		C303.3,123.7,303.3,123.7,303.3,123.7 M303.3,123.7C303.3,123.6,303.3,123.6,303.3,123.7C303.3,123.6,303.3,123.6,303.3,123.7
		 M303.3,123.6C303.3,123.6,303.3,123.6,303.3,123.6C303.3,123.6,303.3,123.6,303.3,123.6 M303.3,123.6
		C303.3,123.6,303.3,123.6,303.3,123.6C303.3,123.6,303.3,123.6,303.3,123.6 M303.3,123.5C303.4,123.5,303.4,123.5,303.3,123.5
		C303.4,123.5,303.4,123.5,303.3,123.5 M303.4,123.5C303.4,123.5,303.4,123.5,303.4,123.5C303.4,123.5,303.4,123.5,303.4,123.5
		 M303.4,123.5C303.4,123.5,303.4,123.5,303.4,123.5C303.4,123.5,303.4,123.5,303.4,123.5 M303.4,123.4
		C303.4,123.4,303.4,123.4,303.4,123.4c0-0.1,0.1-0.2,0.1-0.2C303.5,123.3,303.4,123.3,303.4,123.4
		C303.4,123.4,303.4,123.4,303.4,123.4 M303.5,123.2C303.5,123.2,303.5,123.2,303.5,123.2C303.5,123.2,303.5,123.2,303.5,123.2"/>
	<path class="st35" d="M230.8,172C230.8,172,230.8,172,230.8,172c12-2.7,30.1-11,45.5-21.4c0,0,0,0,0,0c0,0,0,0,0.1,0c0,0,0,0,0,0
		c0,0,0,0,0.1,0c0,0,0,0,0,0c0,0,0,0,0,0c0,0,0,0,0,0c0,0,0,0,0,0c0,0,0,0,0.1,0c0,0,0,0,0,0c0,0,0,0,0.1,0l0,0
		c0.1,0,0.1-0.1,0.2-0.1c1.4-0.9,2.7-1.9,4-2.8c0,0,0,0,0,0c0,0,0,0,0,0c0,0,0,0,0,0c0,0,0,0,0,0l0,0c0.1,0,0.1-0.1,0.2-0.1
		c0,0,0,0,0,0c0,0,0,0,0,0c0,0,0,0,0,0c0,0,0,0,0,0c0,0,0,0,0,0c0,0,0,0,0,0c0,0,0,0,0,0c0,0,0,0,0,0c0,0,0,0,0,0c0,0,0,0,0,0
		c0,0,0,0,0,0c0,0,0,0,0.1,0c0,0,0,0,0,0c0,0,0,0,0,0c0,0,0,0,0,0c0,0,0,0,0,0c0,0,0,0,0,0c0,0,0,0,0,0c0,0,0,0,0,0c0,0,0,0,0,0
		c0,0,0,0,0,0c0,0,0,0,0,0c0,0,0,0,0,0c0,0,0,0,0,0c0,0,0,0,0,0c0,0,0,0,0.1,0c0,0,0,0,0,0c0,0,0,0,0,0c0,0,0,0,0,0c0,0,0,0,0,0
		c0,0,0,0,0,0c0,0,0,0,0,0c0,0,0,0,0,0c0,0,0,0,0,0c0,0,0,0,0,0c0,0,0,0,0,0c0,0,0,0,0,0c0,0,0,0,0,0c0,0,0,0,0,0c0,0,0,0,0,0
		c0,0,0,0,0,0c0,0,0,0,0,0c0,0,0,0,0,0c0,0,0,0,0,0c0,0,0,0,0,0c0,0,0,0,0,0c0,0,0,0,0,0c0,0,0,0,0,0c0,0,0,0,0,0c0,0,0,0,0,0
		c0,0,0,0,0,0c0,0,0,0,0,0c0,0,0.1,0,0.1-0.1c0,0,0,0,0,0c0,0,0,0,0,0c0,0,0,0,0,0c0,0,0,0,0,0c0,0,0,0,0,0c0,0,0,0,0,0l0,0
		c0.1-0.1,0.2-0.1,0.3-0.2c0,0,0,0,0,0c0,0,0,0,0,0c0,0,0,0,0,0c8.8-6.6,16.1-13.9,19.8-20.9c0,0,0,0,0,0c0,0,0,0,0,0c0,0,0,0,0,0
		c0,0,0,0,0,0c0,0,0,0,0,0c0,0,0-0.1,0.1-0.1c0,0,0,0,0,0c0,0,0,0,0,0c0,0,0,0,0,0c0,0,0,0,0,0c0,0,0,0,0,0c0,0,0,0,0,0c0,0,0,0,0,0
		c0,0,0-0.1,0.1-0.1c0,0,0,0,0,0c0,0,0,0,0,0c0,0,0,0,0,0c0,0,0,0,0,0c0,0,0,0,0,0c0,0,0,0,0,0c0,0,0,0,0,0c0,0,0,0,0,0l0,0
		c0,0,0,0,0-0.1c0,0,0,0,0,0c0,0,0,0,0,0c0,0,0,0,0,0c0,0,0,0,0,0c0,0,0,0,0,0c0,0,0,0,0,0c0,0,0,0,0,0c0,0,0,0,0,0c0,0,0,0,0,0
		c0,0,0,0,0,0c0,0,0,0,0,0c0,0,0,0,0-0.1c0,0,0,0,0,0c0,0,0,0,0,0c0,0,0,0,0,0c0,0,0,0,0,0c0,0,0,0,0,0c0,0,0,0,0,0c0,0,0,0,0,0
		c0,0,0,0,0,0c0,0,0,0,0,0c0,0,0,0,0,0c0,0,0,0,0,0c0,0,0,0,0-0.1c0,0,0,0,0,0c0,0,0,0,0,0c0,0,0,0,0,0c0,0,0,0,0,0c0,0,0,0,0,0
		c0,0,0,0,0,0c0,0,0,0,0,0c0,0,0,0,0,0c0,0,0,0,0,0c0,0,0,0,0,0c0,0,0,0,0,0c0,0,0,0,0,0v0c0,0,0,0,0,0c0,0,0,0,0,0c0,0,0,0,0,0
		c0,0,0,0,0,0c0,0,0,0,0,0c0,0,0,0,0,0c0,0,0,0,0,0c0,0,0,0,0,0c0,0,0,0,0,0c0,0,0,0,0,0c0,0,0,0,0,0c0,0,0,0,0,0c0,0,0,0,0,0
		c0,0,0,0,0,0c0,0,0,0,0,0c0,0,0,0,0,0c0,0,0,0,0,0c0,0,0,0,0,0c0,0,0,0,0,0c0,0,0,0,0,0c0,0,0,0,0,0c0,0,0,0,0,0c0,0,0,0,0,0
		c0,0,0,0,0,0c0,0,0,0,0,0c0,0,0,0,0,0c0,0,0,0,0-0.1c0,0,0,0,0,0c0,0,0,0,0,0c0,0,0,0,0,0c0,0,0,0,0,0c0,0,0,0,0,0c0,0,0,0,0,0
		c0,0,0,0,0,0c0,0,0,0,0,0c0,0,0,0,0,0c0,0,0,0,0,0c0,0,0,0,0,0c0,0,0,0,0,0c0-0.1,0.1-0.1,0.1-0.2c0,0,0,0,0,0c0,0,0,0,0,0
		c0.2-0.4,0.4-0.9,0.5-1.3l0-0.1c0.2-0.5,0.4-0.9,0.5-1.4l0,0l-5.6-6.9c-8.6,10.8-15.5,22-37.5,34.6c-10.1,5.8-18.2,9.7-25.9,12
		c0,0,0,0,0,0C234.9,164.1,233.4,168.1,230.8,172L230.8,172C230.8,172,230.8,172,230.8,172C230.8,172,230.8,172,230.8,172
		C230.8,172,230.8,172,230.8,172C230.8,172,230.8,172,230.8,172L230.8,172"/>
	<path class="st20" d="M300.2,104.2c0,0,27.1-14.5,31.4-16.4l-23.7-13.9l5-13.1c0,0,35.3,12.5,42,16.1c3.5,1.9,5,3.5,5,6.2
		c0,4.5-4.3,10.4-10.2,15.4c-12.6,10.8-29.8,20.8-46.5,30c-3.8,2.8-7.8,6.4-7.8,6.4C291,137,284.6,116.7,300.2,104.2L300.2,104.2z"
		/>
	<path class="st22" d="M274.8,53.8c3.5-8.2,13-12,21.2-8.4c8.2,3.5,12,13,8.4,21.2c-0.1,0.3-0.3,0.5-0.4,0.8l4.1,8.9l6.1-11.2
		c0-1.8,1.4-3.4,3.2-3.5c1.9-0.2,3.5,1.3,3.6,3.2l-4.6,0.4c0.8,0.5,1.7,1.4,2.2,2.8c1.1,2.9-2.7,8.7-7.9,13.9c0,0-7.3,10.3-9,11.7
		c-1.8,1.4-4,1.1-4,1.1l-0.4-20.2c-4.2,2.3-9.3,2.6-14,0.6C275.1,71.5,271.3,62,274.8,53.8L274.8,53.8z"/>
	<path class="st20" d="M304.6,79.8c0.7,0.9,2.7-0.3,4.3-0.9c1.6-0.7,6-0.7,6.1,3.9c0.2,4.7-5.5,8.4-8.8,8.1c-5.6-0.6-5-4.1-5-4.1
		L293,105c-9.6,5.2-27.4-3-16.7-8.2l2.4-5.4c0,0-3.8-1-5.8-2.3c-3.4-2.1-4.5-6-3.9-10.4c1-7.1,2.5-12.5,9.4-24.3
		c7.5-12.9,23.5-6.2,29.7,2.8C314.3,66.2,304.6,79.8,304.6,79.8L304.6,79.8z"/>
	<path class="st22" d="M303.9,81.3c0.5,0.2,3.4-1.9,5-2.5c2.2-0.7,5.7-14.5,5.7-14.5s2.9-2.6,1.3-7.2c-1.3-3.8-6.1-6.3-9.4-8
		c-6-3-12.7-6.5-15.6-12.8c-0.2-0.5-0.6-1.1-1.1-1.1c-0.3,0-0.6,0.2-0.9,0.5c-1.5,1.5-2.1,3.6-2.2,5.6c0,0.2-0.1,0.4-0.2,0.5
		c-0.2,0.1-0.3-0.1-0.5-0.2c-0.6-0.7-1.1-1.6-1.4-2.5c-0.4-1.2-2.5,1.9-2.7,2.4c-1,2.6-0.8,6,0.5,8.5c1.3,2.6,4,4.3,6.5,5.7
		c5.5,3.2,14.9,6.3,16.2,6.6c1.8,0.5,1.4,2.3,0.4,7.1C304.6,73.7,302.4,80.6,303.9,81.3L303.9,81.3z"/>
	<path class="st21" d="M278.7,91.4c0,0,9.8,2.1,13.3,1.8c2.3-0.2,4.7-1.3,5.6-2.2c0,0-1.6,2.2-4.2,3.6c-3.2,1.8-15.7-1.1-15.7-1.1
		L278.7,91.4L278.7,91.4z"/>
	<path class="st22" d="M294,65.8L297,69c0.9-0.9,0.9-2.3,0.1-3.1C296.3,64.9,294.9,64.9,294,65.8L294,65.8z"/>
	<path class="st21" d="M284.6,82.1l-4.3-0.2c-0.1,1.2,0.8,2.3,2,2.3C283.5,84.3,284.5,83.3,284.6,82.1L284.6,82.1z"/>
	<path class="st22" d="M276.2,60.7l4.2-1.1c-0.3-1.2-1.4-1.9-2.6-1.6C276.7,58.3,276,59.5,276.2,60.7L276.2,60.7z"/>
	<polygon class="st21" points="285.2,67.3 282.3,77.6 277.3,74.5 285.2,67.3 	"/>
	<path class="st22" d="M293.2,71.9c0,1-0.8,1.9-1.9,1.9c-1,0-1.9-0.8-1.9-1.9c0-1,0.8-1.9,1.9-1.9C292.3,70,293.2,70.9,293.2,71.9
		L293.2,71.9z"/>
	<path class="st22" d="M279.5,66.6c0,1-0.8,1.8-1.8,1.8c-1,0-1.8-0.8-1.8-1.8c0-1,0.8-1.8,1.8-1.8C278.7,64.8,279.5,65.6,279.5,66.6
		L279.5,66.6z"/>
	<path class="st23" d="M121.6,208.4c0.7,0.5-0.4,3.6-1,4.3c-0.6,0.8-2.5,2.1-4.8,2.7c-2.3,0.6-6.5,2.6-9.1,4.8
		c-1.9,1.6-6.5,4.6-11.4,5.7c-5,1.1-10.7-0.3-15.7-3.3c-5.2-3.1-4.8-6.1-4-8.1L121.6,208.4L121.6,208.4z"/>
	<path class="st12" d="M110.2,191.1c-1.7,1.8-10.8,10.8-17.8,13.1c-5.6,1.8-12.8,3.6-16,7c-3.3,3.5,1.6,8.1,8.4,10.7
		c7.1,2.7,11.9,0.5,16.6-1.8c3.3-1.7,8.2-5,10.6-6.4c2.4-1.4,7-2.1,8.9-4.1c1-1.1,1.8-4.2,2.2-6.9c0.4-2.5,2.1-4.8,1.2-4.9l-1.4,1.5
		C116.5,200.4,109.8,194.5,110.2,191.1L110.2,191.1z"/>
	<path class="st21" d="M331.6,87.7c3.5,1.9,9.1,4,12.9,4.5c0,0-7.1,1.8-15.6-3.1L331.6,87.7L331.6,87.7z"/>
</g>
</svg>
