<?xml version="1.0" encoding="utf-8"?>
<!-- Generator: Adobe Illustrator 22.1.0, SVG Export Plug-In . SVG Version: 6.00 Build 0)  -->
<svg version="1.1" id="eq" xmlns="http://www.w3.org/2000/svg" xmlns:xlink="http://www.w3.org/1999/xlink" x="0px" y="0px"
	 viewBox="0 0 100 100" style="enable-background:new 0 0 100 100;" xml:space="preserve">
<style type="text/css">
	.st0{fill:#ED747D;}
	.st1{fill:#EC737D;}
	.st2{fill:#F2B649;}
	.st3{fill:#81C993;}
</style>
<path id="bar-6" class="st0" d="M93,98L93,98c-2.8,0-5-2.2-5-5V53c0-2.8,2.2-5,5-5h0c2.8,0,5,2.2,5,5v40C98,95.8,95.8,98,93,98z"/>
<path id="bar-5" class="st1" d="M76,98L76,98c-2.8,0-5-2.2-5-5V53c0-2.8,2.2-5,5-5h0c2.8,0,5,2.2,5,5v40C81,95.8,78.8,98,76,98z"/>
<path id="bar-4" class="st2" d="M59,98L59,98c-2.8,0-5-2.2-5-5V53c0-2.8,2.2-5,5-5h0c2.8,0,5,2.2,5,5v40C64,95.8,61.8,98,59,98z"/>
<path id="bar-3" class="st2" d="M42,98L42,98c-2.8,0-5-2.2-5-5V53c0-2.8,2.2-5,5-5h0c2.8,0,5,2.2,5,5v40C47,95.8,44.8,98,42,98z"/>
<path id="bar-2" class="st3" d="M25,98L25,98c-2.8,0-5-2.2-5-5V53c0-2.8,2.2-5,5-5h0c2.8,0,5,2.2,5,5v40C30,95.8,27.8,98,25,98z"/>
<path id="bar-1" class="st3" d="M8,98L8,98c-2.8,0-5-2.2-5-5V53c0-2.8,2.2-5,5-5h0c2.8,0,5,2.2,5,5v40C13,95.8,10.8,98,8,98z"/>
</svg>
