<?xml version="1.0" encoding="utf-8"?>
<!-- Generator: Adobe Illustrator 23.0.4, SVG Export Plug-In . SVG Version: 6.00 Build 0)  -->
<svg version="1.1" id="icon" xmlns="http://www.w3.org/2000/svg" xmlns:xlink="http://www.w3.org/1999/xlink" x="0px" y="0px"
	 viewBox="0 0 100 100" style="enable-background:new 0 0 100 100;" xml:space="preserve">
<style type="text/css">
	.st0{fill:none;stroke:#81C993;stroke-width:12;stroke-miterlimit:10;}
	.st1{fill:#81C993;}
</style>
<g>
	<path id="border" class="st0" d="M80.91,92.16H19.03c-5.52,0-10-4.48-10-10V17.84c0-5.52,4.48-10,10-10h61.88c5.52,0,10,4.48,10,10
		v64.32C90.91,87.68,86.43,92.16,80.91,92.16z"/>
	<g id="cross">
		<path class="st1" d="M49.99,26.33L49.99,26.33c3.35,0,6.07,2.72,6.07,6.07v35.19c0,3.35-2.72,6.07-6.07,6.07h0
			c-3.35,0-6.07-2.72-6.07-6.07V32.41C43.92,29.05,46.64,26.33,49.99,26.33z"/>
		<path class="st1" d="M73.66,50L73.66,50c0,3.35-2.72,6.07-6.07,6.07H32.4c-3.35,0-6.07-2.72-6.07-6.07v0
			c0-3.35,2.72-6.07,6.07-6.07h35.19C70.94,43.93,73.66,46.65,73.66,50z"/>
	</g>
</g>
</svg>
