<?xml version="1.0" encoding="utf-8"?>
<!-- Generator: Adobe Illustrator 22.1.0, SVG Export Plug-In . SVG Version: 6.00 Build 0)  -->
<svg version="1.1" id="Layer_1" xmlns="http://www.w3.org/2000/svg" xmlns:xlink="http://www.w3.org/1999/xlink" x="0px" y="0px"
	 viewBox="0 0 500 200" style="enable-background:new 0 0 500 200;" xml:space="preserve">
<style type="text/css">
	.st0{fill:#685052;}
	.st1{fill:#3F3335;}
	.st2{fill:#ED747D;}
	.st3{fill:#D16675;}
	.st4{fill:#333232;}
	.st5{fill:#434343;}
	.st6{fill:#565656;}
	.st7{fill:#394351;}
	.st8{fill:#A8B3C1;}
	.st9{fill:#D5C3C6;}
	.st10{fill:#434D5B;}
	.st11{fill:#2C333D;}
	.st12{fill:#937F58;}
	.st13{fill:#6D5C3F;}
	.st14{fill:#39424D;}
</style>
<polygon class="st0" points="461.6,55.8 163.4,55.8 28.1,182.3 332.6,182.3 "/>
<polygon class="st1" points="108.6,139.9 61.7,150.8 89.7,124.7 142.4,106.8 "/>
<path class="st1" d="M345.6,169.5h-33.3c-2,0-2.9-2.5-1.5-3.8l23.8-21.5l48.3-11.1L345.6,169.5z"/>
<path class="st2" d="M334.6,76.1H221.2c-4.3,0-8.4,1.7-11.4,4.7l-76.5,76.5c-2,2-0.6,5.6,2.3,5.6h107c5,0,9.8-1.9,13.4-5.3L336.6,81
	C338.5,79.2,337.2,76.1,334.6,76.1z"/>
<path class="st3" d="M331,78.6H220.4c-3.1,0-6,1.2-8.2,3.4l-74.9,74.9c-1.2,1.2-0.4,3.4,1.4,3.4h104.3c4,0,7.9-1.5,10.8-4.3
	L332.3,82C333.6,80.8,332.8,78.6,331,78.6z"/>
<g>
	<g>
		<polygon class="st4" points="142.4,89.5 108.6,122.7 108.6,140.6 142.4,106.8 		"/>
		<polygon class="st5" points="94.9,122.7 129.1,89.5 142.4,89.5 108.6,122.7 		"/>
		<polygon class="st6" points="141,106.2 141.2,92 126.9,106.2 126.9,120.3 		"/>
		<polygon class="st7" points="140.2,106.2 140.4,93.7 127.8,106.2 127.8,118.6 		"/>
		<polygon class="st6" points="124.1,123.1 124.4,108.8 110.1,123.1 110.1,137.1 		"/>
		<polygon class="st7" points="123.1,123.1 123.3,111 111.2,123.1 111.2,135 		"/>
		<rect x="94.9" y="122.7" class="st6" width="13.8" height="17.9"/>
		<polygon class="st8" points="117.2,128.9 115.1,131 117.8,116.4 119.9,114.4 		"/>
		<polygon class="st8" points="133.9,112.5 131.7,114.7 134.4,99.6 136.5,97.6 		"/>
	</g>
	<g>
		<polygon class="st4" points="136.4,17.7 89.7,64.4 89.7,130.5 93.2,130.5 139.9,17.7 		"/>
		<polygon class="st9" points="139.9,17.7 93.2,64.4 93.2,130.5 139.9,83.8 		"/>
		<polygon class="st6" points="138.7,20.5 105.8,53.4 94.3,64.9 94.3,127.7 138.7,83.3 		"/>
	</g>
	<polygon class="st4" points="123.3,100.4 114.8,108.9 112.8,114.4 129.2,98.2 	"/>
	<polygon class="st6" points="114.8,108.9 109.4,114.3 109.4,114.3 112.8,114.4 	"/>
</g>
<g>
	<g>
		<path class="st3" d="M125.8-93.7c8.9-10.1,17.6-20.3,26.1-30.8c4-5,8-10,11.9-15.1c2-2.6,3.8-6.2,7.1-7.1c2.8-0.8,6.3-0.5,9.2-0.7
			c-0.8-1.1-1.6-2.1-2.4-3.2c-2.1,13.6-8.9,24.7-19,33.8c-4.6,4.1-9.4,7.9-13.8,12.2c-5.1,5-10.9,13.3-19.1,10.3
			c-3-1.1-4.3,3.7-1.3,4.8c6.8,2.5,13-0.8,17.9-5.4c5.8-5.4,11.3-10.9,17.3-16.1c11.8-10.3,20.3-22.5,22.8-38.2
			c0.2-1.5-0.6-3.3-2.4-3.2c-4.6,0.3-11.1-0.4-14.8,2.9c-2.4,2.1-4.3,5.4-6.2,7.9c-2.4,3-4.7,6.1-7.1,9.1
			c-9.6,12-19.5,23.8-29.7,35.3C120.1-94.9,123.7-91.3,125.8-93.7L125.8-93.7z"/>
	</g>
</g>
<g>
	<g>
		<path class="st3" d="M180.2-151c1.1,10.2,1.9,20.3,2.3,30.6c0.1,4.1,0.7,8.5,0.2,12.6c-0.6,5-4.9,9.1-8.1,12.8
			c-11.5,13.2-25.3,24.1-40.7,32.4c1.3,0.7,2.5,1.4,3.8,2.2c-0.1-9.8-0.6-19.6-1.4-29.4c-0.3-3.2-5.3-3.2-5,0
			c0.8,9.8,1.3,19.6,1.4,29.4c0,1.9,2.1,3.1,3.8,2.2c16.8-8.9,31.8-21,43.9-35.7c2.4-2.9,5.2-5.9,6.5-9.5c1.5-4.1,1-8.8,0.8-13
			c-0.3-11.5-1.1-23-2.4-34.4C184.9-154.2,179.9-154.2,180.2-151L180.2-151z"/>
	</g>
</g>
<g>
	<g>
		<path class="st3" d="M119.9-94.5c0.2,3.5,0.1,6.8-0.3,10.2c0.8-0.6,1.6-1.2,2.4-1.8c-5.5,0.2-10.9,0-16.3-0.8
			c-3.4-0.5-8.5-3-11.8-1.5c-2.3,1.1-2.7,3.2-2.9,5.5c-0.4,4-1.1,9.8-0.1,13.6c0.6,2.6,1.8,3.5,4.3,4.4c4.9,1.7,10.4,2.3,15.5,3.5
			c2.3,0.5,16.6,5.5,14.2-2c-1-3-5.8-1.7-4.8,1.3c0-0.3,0-0.6,0.1-0.9c0.7-0.4,1.4-0.8,2.2-1.2c-5.5,0.1-11.7-2.4-17-3.6
			c-1.6-0.4-7.5-0.7-8.7-1.9c-1.6-1.6-0.6-6.3-0.5-8.2c0.1-2.5-0.8-5.3,2-5.5c2.6-0.1,5.7,1.2,8.4,1.6c5.2,0.7,10.5,0.9,15.8,0.7
			c1,0,2.3-0.7,2.4-1.8c0.5-3.9,0.8-7.7,0.5-11.6C124.7-97.7,119.7-97.7,119.9-94.5L119.9-94.5z"/>
	</g>
</g>
<g>
	<g>
		<path class="st3" d="M120-60.3c3.8,0,7.6,0.3,11.4,1c3.1,0.6,4.5-4.3,1.3-4.8c-4.2-0.7-8.4-1.1-12.7-1.1
			C116.8-65.3,116.8-60.3,120-60.3L120-60.3z"/>
	</g>
</g>
<g>
	<g>
		<path class="st3" d="M99-85.5c8.7-8.9,17-18.2,24.8-27.9c3.4-4.3,6.8-8.7,10-13.1c4-5.4,9.2-12.9,16.9-10.2c3,1.1,4.4-3.8,1.3-4.8
			c-12.6-4.4-20.2,9.5-26.5,17.7c-9.3,12.2-19.4,23.8-30.1,34.8C93.2-86.8,96.7-83.2,99-85.5L99-85.5z"/>
	</g>
</g>
<g>
	<g>
		<path class="st3" d="M140-147.5c0,1.8,0,3.7,0,5.5c0,3.2,5,3.2,5,0c0-1.8,0-3.7,0-5.5C145-150.7,140-150.7,140-147.5L140-147.5z"
			/>
	</g>
</g>
<g>
	<g>
		<path class="st3" d="M141.4-149.2c6.3,2.2,12.8,3.8,19.4,4.8c3.1,0.5,4.5-4.3,1.3-4.8c-6.6-1-13.1-2.6-19.4-4.8
			C139.7-155.1,138.4-150.3,141.4-149.2L141.4-149.2z"/>
	</g>
</g>
<g>
	<g>
		<path class="st3" d="M142.5-151.8c2-5.1,10.1-3.4,14.5-3.3c4.3,0.1,8.7,0.2,13,0.3c3.2,0.1,3.2-4.9,0-5
			c-7.3-0.2-14.8-0.7-22.1-0.4c-5,0.2-8.4,2.5-10.3,7.2C136.5-150.1,141.3-148.8,142.5-151.8L142.5-151.8z"/>
	</g>
</g>
<g>
	<path class="st10" d="M404.9,49.9h55c2.1,0,3.7,1.7,3.7,3.7v14.4c0,1.2-1,2.2-2.2,2.2h-65c-1.3,0-2.4-1.1-2.4-2.4v-7.1
		C394,54.8,398.9,49.9,404.9,49.9z"/>
	<path class="st11" d="M448.9,65.2l-46.2,63.1l-82.3-1.4l64.1-57.6c2.9-2.6,6.8-4.1,10.7-4.1H448.9z"/>
	<g>
		<polygon class="st12" points="407.4,149.2 402.3,150.6 406.5,165.5 409.2,165.3 		"/>
		<polygon class="st13" points="403.6,150.3 402.3,150.6 406.5,165.5 407.6,165.4 		"/>
		<polygon class="st13" points="397.2,149.2 402.3,150.6 398.2,165.5 395.5,165.3 		"/>
		<polygon class="st12" points="398.5,149.6 402.3,150.6 398.2,165.5 396.6,165.4 		"/>
	</g>
	<g>
		<polygon class="st12" points="466.5,75.2 461.4,76.6 465.5,91.4 468.2,91.3 		"/>
		<polygon class="st13" points="462.7,76.2 461.4,76.6 465.5,91.4 466.6,91.4 		"/>
		<polygon class="st13" points="456.3,75.2 461.4,76.6 457.3,91.4 454.6,91.3 		"/>
		<polygon class="st12" points="457.5,75.5 461.4,76.6 457.3,91.4 455.7,91.4 		"/>
	</g>
	<g>
		<polygon class="st12" points="337.6,149.7 332.5,151.2 336.6,166 339.3,165.9 		"/>
		<polygon class="st13" points="333.8,150.8 332.5,151.2 336.6,166 337.8,165.9 		"/>
		<polygon class="st13" points="327.4,149.7 332.5,151.2 328.4,166 325.7,165.9 		"/>
		<polygon class="st12" points="328.7,150.1 332.5,151.2 328.4,166 326.8,165.9 		"/>
	</g>
	<path class="st10" d="M356.6,105.1H399c7.4,0,13.4,6,13.4,13.4v4.8c0,1.2-1,2.2-2.2,2.2h-67.4V119
		C342.7,111.3,348.9,105.1,356.6,105.1z"/>
	<path class="st14" d="M411.9,152c5.8-6.1,58.9-78.6,58.9-78.6c1.4-2.2,1.1-11.5,1.1-13.9c0.1-14.3-5.7-13.4-8.3-13.2
		c-4.2,0.4-3.1-0.1-10.5,7.4c-8.1,8.2-16.9,16.3-45.3,54.3c-5.4,7.3-5.4,7.3-5.4,13.2c0,13.9,2.6,21.7,2.6,21.7
		C411.2,143.6,404.2,156.1,411.9,152z"/>
	<path class="st14" d="M317.6,125.5h83.5c6.2,0,11.2,5,11.2,11.2v13.9c0,1.2-1,2.2-2.2,2.2h-93.7c-1.3,0-2.4-1.1-2.4-2.4V129
		C314,127,315.6,125.5,317.6,125.5z"/>
	<path class="st10" d="M463.7,46.3c-11.2,10.2-25.4,26.3-36.9,44.9c-5,8-9,15.7-12.2,23c7.4-10.8,14.1-19.8,19.5-26.8
		c6.3-8.1,25.8-30.8,34.9-36c1.8-1,0.6-2.9,0.2-3.7C468.7,46.9,466.5,45.9,463.7,46.3z"/>
	<path class="st11" d="M352.5,114.6c7.6,3.2,15.3-0.9,25.5,2c3.2,0.9,7.8,2.8,12.8,7.4c-5.2-2.2-12.4-4.6-21.2-5.7
		c-7.7-1-14.4-0.7-19.5-0.1c-1.3,0.1-2.5-0.6-2.9-1.7c-0.3-0.8-0.2-1.9,0.4-2.4C348.8,113,351.6,114.3,352.5,114.6z"/>
	<path class="st7" d="M404.9,53.9c7.6,3.2,15.3-0.9,25.5,2c3.2,0.9,7.8,2.8,12.8,7.4c-5.2-2.2-12.4-4.6-21.2-5.7
		c-7.7-1-14.4-0.7-19.5-0.1c-1.3,0.1-2.5-0.6-2.9-1.7c-0.3-0.8-0.2-1.9,0.4-2.4C401.3,52.3,404,53.5,404.9,53.9z"/>
</g>
</svg>
