<?xml version="1.0" encoding="utf-8"?>
<!-- Generator: Adobe Illustrator 22.1.0, SVG Export Plug-In . SVG Version: 6.00 Build 0)  -->
<svg version="1.1" id="Layer_1" xmlns="http://www.w3.org/2000/svg" xmlns:xlink="http://www.w3.org/1999/xlink" x="0px" y="0px"
	 viewBox="0 0 500 200" style="enable-background:new 0 0 500 200;" xml:space="preserve">
<style type="text/css">
	.st0{fill:#685052;}
	.st1{fill:#ED747D;}
	.st2{fill:#D16675;}
	.st3{fill:#333232;}
	.st4{fill:#434343;}
	.st5{fill:#565656;}
	.st6{fill:#394351;}
	.st7{fill:#A8B3C1;}
	.st8{fill:#D5C3C6;}
	.st9{fill:#AD5A68;}
</style>
<polygon class="st0" points="476,55 177.8,55 42.5,181.5 347,181.5 "/>
<polygon class="st1" points="351.6,75.3 229,75.3 142.2,162 264.8,162 "/>
<polygon class="st2" points="345.4,77.8 230.1,77.8 148.5,159.4 263.7,159.4 "/>
<g>
	<g>
		<polygon class="st3" points="156.8,88.7 123.1,121.9 123.1,139.8 156.8,106 		"/>
		<polygon class="st4" points="109.3,121.9 143.6,88.7 156.8,88.7 123.1,121.9 		"/>
		<polygon class="st5" points="155.4,105.4 155.7,91.2 141.4,105.4 141.4,119.5 		"/>
		<polygon class="st6" points="154.6,105.4 154.8,92.9 142.3,105.4 142.2,117.8 		"/>
		<polygon class="st5" points="138.6,122.3 138.8,108 124.5,122.3 124.5,136.3 		"/>
		<polygon class="st6" points="137.5,122.3 137.7,110.2 125.6,122.3 125.6,134.2 		"/>
		<rect x="109.3" y="121.9" class="st5" width="13.8" height="17.9"/>
		<polygon class="st7" points="131.7,128.1 129.6,130.2 132.3,115.6 134.3,113.6 		"/>
		<polygon class="st7" points="148.3,111.7 146.2,113.9 148.9,98.8 150.9,96.8 		"/>
	</g>
	<g>
		<polygon class="st3" points="150.8,16.9 104.1,63.6 104.1,129.7 107.6,129.7 154.3,16.9 		"/>
		<polygon class="st8" points="154.3,16.9 107.6,63.6 107.6,129.7 154.3,83 		"/>
		<polygon class="st5" points="153.2,19.7 120.3,52.6 108.8,64.1 108.8,126.9 153.2,82.5 		"/>
	</g>
	<polygon class="st3" points="137.7,99.6 129.2,108.1 127.3,113.6 143.7,97.4 	"/>
	<polygon class="st5" points="129.2,108.1 123.8,113.5 123.8,113.5 127.3,113.6 	"/>
</g>
<rect x="375.1" y="40.3" transform="matrix(0.8203 -0.5719 0.5719 0.8203 32.2731 244.8732)" class="st9" width="61.5" height="61.5"/>
<rect x="345.6" y="91.4" transform="matrix(0.8203 -0.5719 0.5719 0.8203 -2.2448 237.1819)" class="st2" width="61.5" height="61.5"/>
</svg>
