<?xml version="1.0" encoding="utf-8"?>
<!-- Generator: Adobe Illustrator 24.1.2, SVG Export Plug-In . SVG Version: 6.00 Build 0)  -->
<svg version="1.1" id="icon" xmlns="http://www.w3.org/2000/svg" xmlns:xlink="http://www.w3.org/1999/xlink" x="0px" y="0px"
	 viewBox="0 0 100 100" style="enable-background:new 0 0 100 100;" xml:space="preserve">
<style type="text/css">
	.st0{fill:#525DAA;}
</style>
<path class="st0" d="M80.94,7.84H19.05c-5.52,0-10,4.48-10,10v64.32c0,5.52,4.48,10,10,10h61.88c5.52,0,10-4.48,10-10V17.84
	C90.94,12.32,86.46,7.84,80.94,7.84z M73.96,70.14c0,3.02-2.47,5.49-5.49,5.49H31.52c-3.02,0-5.49-2.47-5.49-5.49V29.96
	c0-3.02,2.47-5.49,5.49-5.49h36.96c3.02,0,5.49,2.47,5.49,5.49V70.14z"/>
</svg>
